<?xml version="1.0" encoding="UTF-8"?>
<svg width="130px" height="130px" viewBox="0 0 130 130" version="1.1" xmlns="http://www.w3.org/2000/svg" xmlns:xlink="http://www.w3.org/1999/xlink">
    <!-- Generator: Sketch 51.2 (57519) - http://www.bohemiancoding.com/sketch -->
    <title>ansible</title>
    <desc>Created with Sketch.</desc>
    <defs></defs>
    <g id="ansible" stroke="none" stroke-width="1" fill="none" fill-rule="evenodd" opacity="0.5">
        <g id="logo" transform="translate(25.000000, 25.000000)" fill="#000000" fill-rule="nonzero">
            <path d="M39.9476038,0 C17.915655,0 0.0534185304,17.8619808 0.0534185304,39.8941853 C0.0534185304,61.9276677 17.915655,79.7878594 39.9476038,79.7878594 C61.9815974,79.7878594 79.8417891,61.9276677 79.8417891,39.8941853 C79.8415335,17.8619808 61.9815974,0 39.9476038,0 Z M56.3161661,59.7459425 C55.5391693,59.7459425 54.941853,59.4430671 54.113738,58.7734185 L33.5238339,42.1390415 L26.6241534,59.4223642 L20.6617252,59.4223642 L38.091246,17.5036422 C38.5446645,16.4015335 39.5169329,15.8182748 40.6190415,15.8182748 C41.719361,15.8182748 42.6259425,16.4015335 43.0791054,17.5036422 L58.9592332,55.7203834 C59.1345687,56.188115 59.2311821,56.6226198 59.2311821,56.8966134 C59.2311821,58.5796805 57.8714377,59.7459425 56.3161661,59.7459425 Z" id="Shape"></path>
            <polygon id="Shape" points="35.3490096 37.5670288 50.943131 49.8507348 40.6192971 24.3703514"></polygon>
        </g>
    </g>
</svg>