<svg width="130" height="130" viewBox="0 0 130 130" xmlns="http://www.w3.org/2000/svg"><title>ansible</title><g fill-rule="nonzero" fill="none"><path d="M101.73 63.364c0 22.018-17.848 39.864-39.866 39.864C39.85 103.228 22 85.382 22 63.364 22 41.35 39.85 23.5 61.864 23.5c22.018 0 39.865 17.85 39.865 39.864" fill="#7F7F7F"/><path d="M65.838 50.132l8.71 21.498-13.156-10.364 4.446-11.134zm15.473 26.45L67.914 44.34c-.382-.93-1.147-1.423-2.075-1.423-.93 0-1.75.492-2.133 1.422L49 79.704h5.03l5.822-14.58 17.37 14.033c.7.565 1.204.82 1.86.82 1.312 0 2.46-.984 2.46-2.404 0-.23-.083-.598-.23-.992z" fill="#FFF"/></g></svg>