<svg width="130" height="130" viewBox="0 0 130 130" xmlns="http://www.w3.org/2000/svg"><title>aws</title><g fill="#7F7F7F" fill-rule="evenodd"><path d="M39.21 55.433c0 1.44.157 2.606.43 3.46.31.857.7 1.79 1.243 2.8.195.313.273.624.273.896 0 .388-.234.777-.74 1.166l-2.45 1.633c-.35.232-.7.35-1.01.35-.39 0-.778-.196-1.167-.546a12.03 12.03 0 0 1-1.4-1.827c-.39-.66-.78-1.4-1.207-2.295C30.15 64.65 26.34 66.44 21.75 66.44c-3.267 0-5.872-.934-7.778-2.8-1.905-1.868-2.878-4.357-2.878-7.468 0-3.305 1.167-5.99 3.54-8.01 2.372-2.023 5.522-3.034 9.527-3.034 1.323 0 2.684.116 4.123.31 1.44.195 2.917.506 4.473.856v-2.838c0-2.956-.623-5.017-1.828-6.223-1.245-1.205-3.345-1.79-6.34-1.79-1.36 0-2.76.157-4.2.507-1.438.35-2.838.778-4.2 1.322a11.16 11.16 0 0 1-1.36.506c-.272.078-.467.116-.622.116-.545 0-.817-.388-.817-1.205v-1.907c0-.622.077-1.09.27-1.36.196-.273.546-.545 1.09-.817 1.36-.7 2.994-1.284 4.9-1.75 1.906-.506 3.928-.74 6.067-.74 4.627 0 8.01 1.05 10.19 3.15 2.137 2.1 3.226 5.29 3.226 9.567v12.6h.078zm-15.788 5.91c1.284 0 2.606-.232 4.006-.7 1.4-.465 2.644-1.32 3.694-2.487.622-.74 1.09-1.556 1.322-2.49.234-.933.39-2.06.39-3.383V50.65a32.477 32.477 0 0 0-3.578-.66 29.303 29.303 0 0 0-3.656-.234c-2.606 0-4.51.505-5.794 1.555-1.284 1.05-1.906 2.53-1.906 4.473 0 1.828.467 3.19 1.44 4.123.932.972 2.293 1.438 4.082 1.438zm31.228 4.2c-.7 0-1.167-.115-1.478-.387-.31-.234-.583-.778-.816-1.517l-9.14-30.062c-.233-.778-.35-1.284-.35-1.556 0-.622.312-.972.934-.972h3.81c.74 0 1.246.117 1.518.39.31.232.544.777.778 1.516L56.44 58.7l6.066-25.744c.194-.778.427-1.284.738-1.517.312-.234.856-.39 1.556-.39h3.11c.74 0 1.246.117 1.557.39.31.232.583.777.74 1.516L76.35 59.01l6.728-26.054c.233-.778.505-1.284.778-1.517.31-.234.816-.39 1.516-.39h3.617c.62 0 .97.31.97.972 0 .195-.038.39-.077.622-.04.234-.116.545-.272.973l-9.37 30.06c-.234.78-.507 1.284-.818 1.517-.31.234-.816.39-1.478.39H74.6c-.74 0-1.244-.117-1.556-.39-.31-.272-.583-.777-.738-1.555l-6.028-25.084-5.99 25.044c-.194.778-.427 1.283-.738 1.556-.31.272-.856.388-1.556.388H54.65zm49.972 1.05c-2.022 0-4.044-.232-5.99-.7-1.943-.465-3.46-.97-4.47-1.554-.623-.35-1.05-.74-1.206-1.09a2.745 2.745 0 0 1-.234-1.09V60.18c0-.817.31-1.206.895-1.206.233 0 .466.04.7.117.233.077.583.232.972.388 1.32.583 2.76 1.05 4.277 1.36 1.555.312 3.072.468 4.627.468 2.45 0 4.356-.428 5.678-1.284 1.322-.855 2.022-2.1 2.022-3.694 0-1.09-.35-1.984-1.05-2.722-.7-.74-2.022-1.4-3.927-2.023l-5.64-1.75c-2.838-.894-4.938-2.216-6.22-3.966-1.285-1.71-1.946-3.617-1.946-5.64 0-1.633.35-3.07 1.05-4.316a10 10 0 0 1 2.8-3.188c1.168-.894 2.49-1.555 4.046-2.022 1.555-.467 3.188-.66 4.9-.66.855 0 1.75.038 2.605.154.896.117 1.712.273 2.53.428.777.195 1.516.39 2.216.622.7.234 1.244.467 1.633.7.543.312.932.623 1.166.973.233.31.35.74.35 1.283v1.828c0 .816-.312 1.244-.895 1.244-.31 0-.816-.155-1.477-.466-2.216-1.012-4.705-1.517-7.466-1.517-2.217 0-3.967.35-5.173 1.088-1.205.74-1.827 1.866-1.827 3.46 0 1.09.39 2.023 1.166 2.762.778.74 2.217 1.478 4.278 2.14l5.523 1.75c2.8.893 4.823 2.138 6.028 3.732 1.207 1.595 1.79 3.422 1.79 5.445 0 1.672-.35 3.19-1.01 4.51-.7 1.323-1.634 2.49-2.84 3.423-1.206.972-2.644 1.672-4.317 2.178-1.75.544-3.577.816-5.56.816zM111.972 85.494C99.178 94.944 80.59 99.96 64.606 99.96c-22.4 0-42.584-8.282-57.828-22.05-1.206-1.088-.117-2.566 1.322-1.71 16.49 9.567 36.828 15.36 57.867 15.36 14.194 0 29.79-2.954 44.14-9.02 2.137-.973 3.965 1.4 1.865 2.954z"/><path d="M117.3 79.428c-1.633-2.1-10.81-1.01-14.972-.506-1.245.156-1.44-.933-.31-1.75 7.31-5.133 19.326-3.655 20.726-1.944 1.4 1.75-.388 13.766-7.233 19.522-1.05.894-2.06.428-1.593-.74 1.555-3.85 5.016-12.52 3.383-14.582z"/></g></svg>