<?xml version="1.0" encoding="UTF-8"?>
<svg width="130px" height="130px" viewBox="0 0 130 130" version="1.1" xmlns="http://www.w3.org/2000/svg" xmlns:xlink="http://www.w3.org/1999/xlink">
    <!-- Generator: Sketch 51.2 (57519) - http://www.bohemiancoding.com/sketch -->
    <title>aws</title>
    <desc>Created with Sketch.</desc>
    <defs></defs>
    <g id="aws" stroke="none" stroke-width="1" fill="none" fill-rule="evenodd" opacity="0.5">
        <g id="logo" transform="translate(6.000000, 30.000000)" fill="#000000" fill-rule="nonzero">
            <path d="M87.8433858,34.3394094 C88.8537008,34.9222835 90.3694488,35.4274409 92.3126378,35.8937402 C94.2558268,36.3600394 96.2767323,36.5934646 98.2973622,36.5934646 C100.279409,36.5934646 102.106024,36.3214567 103.854921,35.7771654 C105.526102,35.2720079 106.964134,34.5725591 108.16874,33.6008268 C109.373622,32.6682283 110.30622,31.5022047 111.005945,30.180748 C111.666535,28.8595669 112.01626,27.3438189 112.01626,25.6729134 C112.01626,23.6520079 111.433386,21.8253937 110.228504,20.2319291 C109.023898,18.6384646 107.002992,17.395 104.204646,16.5009843 L98.6862205,14.7523622 C96.6264567,14.0914961 95.1884252,13.353189 94.4112598,12.6148819 C93.6340945,11.8765748 93.2455118,10.9437008 93.2455118,9.8553937 C93.2455118,8.26220472 93.8672441,7.13531496 95.0718504,6.39673228 C96.2767323,5.65814961 98.0253543,5.3084252 100.240551,5.3084252 C103.000039,5.3084252 105.487244,5.81358268 107.702441,6.82417323 C108.363031,7.13503937 108.868189,7.29047244 109.179331,7.29047244 C109.762205,7.29047244 110.073071,6.86330709 110.073071,6.04700787 L110.073071,4.2203937 C110.073071,3.67637795 109.956496,3.24866142 109.723071,2.93779528 C109.490197,2.58807087 109.101614,2.27720472 108.557323,1.96633858 C108.16874,1.73318898 107.624724,1.50003937 106.925276,1.26661417 C106.225551,1.03346457 105.487244,0.839448819 104.710079,0.64488189 C103.89378,0.489448819 103.077756,0.334015748 102.18374,0.217440945 C101.328858,0.100866142 100.435118,0.062007874 99.5799606,0.062007874 C97.8699213,0.062007874 96.237874,0.256299213 94.6832677,0.722598425 C93.128937,1.18889764 91.8074803,1.84976378 90.6414567,2.74350394 C89.4757087,3.59866142 88.5428346,4.68669291 87.8433858,5.93043307 C87.1436614,7.17389764 86.793937,8.61192913 86.793937,10.244252 C86.793937,12.2648819 87.4545276,14.1692126 88.737126,15.879252 C90.0197244,17.6281496 92.1183465,18.9493307 94.9552756,19.8433465 L100.590551,21.5922441 C102.494882,22.2139764 103.816063,22.8745669 104.515512,23.6131496 C105.215236,24.3517323 105.564961,25.2451969 105.564961,26.3335039 C105.564961,27.9269685 104.865236,29.1704331 103.544055,30.0255906 C102.222874,30.880748 100.318268,31.3079134 97.8699213,31.3079134 C96.3155906,31.3079134 94.7998425,31.1524803 93.2455118,30.8416142 C91.7762262,30.5411949 90.3430792,30.0852818 88.9702756,29.4815748 C88.5816929,29.3258661 88.2316929,29.1704331 87.9988189,29.0929921 C87.7734296,29.0164648 87.5371197,28.9770023 87.2990945,28.9761417 C86.7162205,28.9761417 86.4053543,29.3647244 86.4053543,30.1810236 L86.4053543,32.1630709 C86.4053543,32.5127953 86.4830709,32.901378 86.6385039,33.2511024 C86.793937,33.6011024 87.221378,33.989685 87.8433858,34.3394094 Z M46.0652362,33.639685 C46.2986614,34.3782677 46.5706693,34.9222835 46.8815354,35.1554331 C47.1924016,35.4274409 47.6587008,35.5440157 48.3581496,35.5440157 L51.7007874,35.5440157 C52.4002362,35.5440157 52.9445276,35.4274409 53.2551181,35.1554331 C53.5662598,34.8834252 53.7994094,34.3782677 53.9937008,33.6011024 L59.9787008,8.57307087 L66.0025591,33.639685 C66.1579921,34.4168504 66.4297244,34.9222835 66.7408661,35.1942913 C67.0520079,35.4662992 67.5568898,35.582874 68.2951969,35.582874 L71.6375591,35.582874 C72.2984252,35.582874 72.8033071,35.4274409 73.1144488,35.1942913 C73.425315,34.9611417 73.6973228,34.4557087 73.9304724,33.6785433 L83.2966929,3.63724409 C83.452126,3.21007874 83.5298425,2.89893701 83.5687008,2.6657874 C83.6072835,2.4326378 83.6464173,2.23834646 83.6464173,2.04405512 C83.6464173,1.38346457 83.2964173,1.07232283 82.674685,1.07232283 L79.0605906,1.07232283 C78.3608661,1.07232283 77.8557087,1.2280315 77.5448425,1.46090551 C77.2728346,1.69433071 77.0008268,2.19948819 76.7676772,2.97665354 L70.0440945,29.015 L63.903937,2.97665354 C63.7485039,2.23807087 63.4762205,1.69433071 63.1653543,1.46090551 C62.8544882,1.18889764 62.3493307,1.07232283 61.6110236,1.07232283 L58.501811,1.07232283 C57.8023622,1.07232283 57.2583465,1.2280315 56.9474803,1.46090551 C56.6363386,1.69433071 56.403189,2.19948819 56.2088976,2.97665354 L50.1461811,28.7041339 L43.6174409,2.97665354 C43.3840157,2.23807087 43.1508661,1.69433071 42.84,1.46090551 C42.5679921,1.18889764 42.0628346,1.07232283 41.324252,1.07232283 L37.5155906,1.07232283 C36.8938583,1.07232283 36.5829921,1.42232283 36.5829921,2.04405512 C36.5829921,2.31606299 36.6995669,2.82122047 36.9329921,3.59838583 L46.0655118,33.639685 L46.0652362,33.639685 Z M22.008937,15.451811 C20.5711811,15.2575197 19.2108661,15.1409449 17.8894094,15.1409449 C13.8867323,15.1409449 10.7386614,16.1512598 8.3680315,18.1724409 C5.99740157,20.1930709 4.83137795,22.8745669 4.83137795,26.1780709 C4.83137795,29.2872835 5.80311024,31.7742126 7.70744094,33.639685 C9.61177165,35.5054331 12.2155512,36.4380315 15.4799213,36.4380315 C20.065748,36.4380315 23.8744094,34.6502756 26.9059055,31.0750394 C27.3330709,31.9685039 27.7219291,32.7070866 28.1105118,33.3679528 C28.5174544,34.0200554 28.9859898,34.6316338 29.509685,35.1942913 C29.8982677,35.5442913 30.2868504,35.7383071 30.6754331,35.7383071 C30.9862992,35.7383071 31.3362992,35.6217323 31.6860236,35.3885827 L34.1343701,33.7562598 C34.6395276,33.3676772 34.8729528,32.9790945 34.8729528,32.5905118 C34.8729528,32.3185039 34.7949606,32.0076378 34.6006693,31.6964961 C34.0566535,30.6861811 33.6680709,29.7535827 33.3572047,28.8984252 C33.0849213,28.0435433 32.9294882,26.8775197 32.9294882,25.4397638 L32.8517717,25.4397638 L32.8517717,12.8480315 C32.8517717,8.57307087 31.7637402,5.38614173 29.6262598,3.28779528 C27.4499213,1.18889764 24.0687008,0.139724409 19.4440157,0.139724409 C17.3065354,0.139724409 15.2856299,0.372874016 13.3812992,0.878307087 C11.4769685,1.34433071 9.84492126,1.92748031 8.4846063,2.62692913 C7.94059055,2.89893701 7.59086614,3.17094488 7.3965748,3.44295276 C7.20228346,3.71496063 7.12429134,4.18153543 7.12429134,4.80326772 L7.12429134,6.70759843 C7.12429134,7.52362205 7.3965748,7.91220472 7.94059055,7.91220472 C8.09602362,7.91220472 8.29059055,7.87362205 8.56232283,7.79590551 C8.83433071,7.71791339 9.30090551,7.56248031 9.9226378,7.29047244 C11.2826772,6.74645669 12.6818504,6.31901575 14.1198819,5.96929134 C15.4937136,5.63355426 16.9028654,5.46386388 18.317126,5.46385827 C21.3094882,5.46385827 23.4081102,6.04700787 24.6515748,7.25161417 C25.8564567,8.45649606 26.478189,10.5162598 26.478189,13.4697638 L26.478189,16.3066929 C24.9238583,15.9569685 23.4469685,15.6461024 22.008937,15.451811 Z M26.5561811,20.6593701 L26.5561811,22.2916929 C26.5561811,23.6131496 26.4004724,24.7400394 26.1675984,25.6729134 C25.9341732,26.6055118 25.4675984,27.4215354 24.8461417,28.1601181 C23.7966929,29.3258661 22.5532283,30.1810236 21.1540551,30.6473228 C19.7548819,31.113622 18.4337008,31.3467717 17.1511024,31.3467717 C15.3633465,31.3467717 14.0033071,30.8804724 13.0704331,29.9090157 C12.0989764,28.9761417 11.6326772,27.6161024 11.6326772,25.7894882 C11.6326772,23.8462992 12.2544094,22.3694094 13.5370079,21.3202362 C14.8193307,20.2707874 16.7236614,19.7656299 19.3274409,19.7656299 C20.5323228,19.7656299 21.7369291,19.8433465 22.9806693,19.9987795 C24.2241339,20.1542126 25.4290157,20.3873622 26.5559055,20.6593701 L26.5561811,20.6593701 Z M103.777205,52.5275591 C89.4365748,58.59 73.8524803,61.5435039 59.6675591,61.5435039 C38.6427559,61.5435039 18.317126,55.7530709 1.83901575,46.1925591 C0.400984252,45.3376772 -0.687047244,46.8142913 0.517559055,47.9025984 C15.7522047,61.6600787 35.922126,69.9379921 58.3072441,69.9379921 C74.2801969,69.9379921 92.8566535,64.9247244 105.642677,55.4807874 C107.741299,53.9264567 105.914685,51.5558268 103.777205,52.5272835 L103.777205,52.5275591 Z" id="Shape"></path>
            <path d="M116.407795,45.2211024 C115.008622,43.511063 103.000039,42.0341732 95.6935827,47.1640157 C94.5664173,47.980315 94.7609843,49.0683465 96.0047244,48.9129134 C100.16311,48.4077559 109.334764,47.3197244 110.966811,49.4183465 C112.599134,51.4781102 109.140197,60.1443307 107.585866,63.9918504 C107.119567,65.1575984 108.129882,65.6241732 109.179331,64.7304331 C116.019213,58.9788583 117.806693,46.97 116.407795,45.2211024 Z" id="Shape"></path>
        </g>
    </g>
</svg>