<?xml version="1.0" encoding="UTF-8"?>
<svg width="98px" height="68px" viewBox="0 0 98 68" version="1.1" xmlns="http://www.w3.org/2000/svg" xmlns:xlink="http://www.w3.org/1999/xlink">
    <!-- Generator: Sketch 51.1 (57501) - http://www.bohemiancoding.com/sketch -->
    <title>logo</title>
    <desc>Created with Sketch.</desc>
    <defs></defs>
    <g id="Symbols" stroke="none" stroke-width="1" fill="none" fill-rule="evenodd" opacity="0.5">
        <g id="Technologies" transform="translate(-485.000000, -540.000000)" fill="#000000" fill-rule="nonzero">
            <g id="technologies" transform="translate(484.000000, 371.000000)">
                <g id="docker" transform="translate(1.000000, 169.000000)">
                    <g id="logo">
                        <path d="M29.5458856,20.2162163 L19.4377775,20.2162163 L19.4377775,11.0270271 L29.5458856,11.0270271 L29.5458856,20.2162163 Z M41.4918316,22.0540541 L31.3837235,22.0540541 L31.3837235,31.2432433 L41.4918316,31.2432433 C41.4918316,31.2432433 41.4918316,22.0540541 41.4918316,22.0540541 Z M29.5458856,22.0540541 L19.4377775,22.0540541 L19.4377775,31.2432433 L29.5458856,31.2432433 L29.5458856,22.0540541 Z M41.4918316,11.0270271 L31.3837235,11.0270271 L31.3837235,20.2162163 L41.4918316,20.2162163 C41.4918316,20.2162163 41.4918316,11.0270271 41.4918316,11.0270271 Z M53.4377776,0 L43.3296695,0 L43.3296695,9.18918921 L53.4377776,9.18918921 L53.4377776,0 Z M65.3837236,22.0540541 L55.2756154,22.0540541 L55.2756154,31.2432433 L65.3837236,31.2432433 L65.3837236,22.0540541 Z M53.4377776,22.0540541 L43.3296695,22.0540541 L43.3296695,31.2432433 L53.4377776,31.2432433 L53.4377776,22.0540541 Z M53.4377776,11.0270271 L43.3296695,11.0270271 L43.3296695,20.2162163 L53.4377776,20.2162163 L53.4377776,11.0270271 Z M17.5999397,22.0540541 L7.49183153,22.0540541 L7.49183153,31.2432433 L17.5999397,31.2432433 L17.5999397,22.0540541 Z M32.3026424,68.0000002 C56.3987386,68.0000002 74.1645044,56.870871 82.5368768,36.7567568 C85.804144,36.8588589 92.8491891,36.7567568 96.5248648,29.8138139 C96.6269669,29.6096097 96.8311711,29.2012013 97.4437837,27.975976 L97.75009,27.2612613 L95.708048,25.933934 C93.4618017,24.5045046 88.4587987,23.8918919 84.4768167,24.6066067 C83.9663062,20.930931 81.9242641,17.7657658 78.1464864,14.9069069 L76.2065464,13.3753754 L74.777117,15.5195196 C72.9392791,18.2762763 72.0203602,22.0540541 72.3266665,25.7297298 C72.4287686,27.0570571 72.837177,29.3033034 74.1645044,31.3453454 C72.837177,32.0600601 70.1825224,33.0810812 66.7110509,32.9789791 L0.344684365,32.9789791 L0.242582263,33.7957959 C-0.370030351,37.4714716 -0.370030351,49.0090091 7.08342312,57.7897899 C12.6990387,64.6306308 21.2756153,68.0000002 32.3026424,68.0000002 Z" id="Shape"></path>
                    </g>
                </g>
            </g>
        </g>
    </g>
</svg>