<?xml version="1.0" encoding="UTF-8"?>
<svg width="130px" height="130px" viewBox="0 0 130 130" version="1.1" xmlns="http://www.w3.org/2000/svg" xmlns:xlink="http://www.w3.org/1999/xlink">
    <!-- Generator: Sketch 51.2 (57519) - http://www.bohemiancoding.com/sketch -->
    <title>docker</title>
    <desc>Created with Sketch.</desc>
    <defs></defs>
    <g id="docker" stroke="none" stroke-width="1" fill="none" fill-rule="evenodd" opacity="0.5">
        <g id="logo" transform="translate(21.000000, 30.000000)" fill="#000000" fill-rule="nonzero">
            <path d="M0.961647059,26.7150882 L10.6134118,26.7150882 L10.6134118,36.3672647 L0.961647059,36.3672647 L0.961647059,26.7150882 Z M14.2523824,26.7150882 L23.9049706,26.7150882 L23.9049706,36.3672647 L14.2523824,36.3672647 L14.2523824,26.7150882 Z M27.5443529,26.7150882 L37.1961176,26.7150882 L37.1961176,36.3672647 L27.5443529,36.3672647 L27.5443529,26.7150882 Z M40.8355,26.7150882 L50.4876765,26.7150882 L50.4876765,36.3672647 L40.8355,36.3672647 L40.8355,26.7150882 Z M40.8355,0.131970588 L50.4876765,0.131970588 L50.4876765,9.78414706 L40.8355,9.78414706 L40.8355,0.131970588 Z M54.1266471,26.7150882 L63.7788235,26.7150882 L63.7788235,36.3672647 L54.1266471,36.3672647 L54.1266471,26.7150882 Z" id="Shape"></path>
            <path d="M89.3146471,32.9309118 C86.2107647,31.1397353 82.0762353,30.8947353 78.5548235,31.9303235 C78.1212353,28.1875882 75.6617647,24.9043824 72.7372059,22.5546471 L71.5756176,21.6209706 C71.5756176,21.6209706 68.3261765,24.7030294 68.3261765,31.6723529 C68.3261765,33.8085882 69.1910882,35.9575882 70.5002941,37.6668235 C69.4268235,40.5749118 62.0251471,40.1625294 56.2359412,40.1625294 L0.0844117647,40.1625294 C-1.41852941,64.9050588 17.4777647,70.8678235 29.7372353,70.8678235 C50.9311765,70.8678235 68.4105882,61.4007353 76.4393824,41.4033824 C88.8464706,42.4811765 90.5882353,33.6657059 90.5882353,33.6657059 L89.3146471,32.9309118 Z M30.2132353,45.7897059 C32.214,45.7897059 33.8363529,47.4126765 33.8363529,49.4136471 C33.8363529,51.4146176 32.214,53.0367647 30.2132353,53.0367647 C28.2116471,53.0367647 26.5892941,51.4144118 26.5892941,49.4136471 C26.5892941,47.4128824 28.2116471,45.7897059 30.2132353,45.7897059 Z M7.95920588,57.2429412 C12.3125882,58.5653235 22.8939118,56.8960294 24.871,55.8917353 C26.9600882,60.7091765 29.6089706,63.6664706 36.4498235,66.9126176 C19.2001765,67.5920294 13.3119412,63.6287941 7.95920588,57.2429412 Z M15.2523824,14.4239412 L24.9049706,14.4239412 L24.9049706,24.0752941 L15.2523824,24.0752941 L15.2523824,14.4239412 Z M28.5443529,14.4239412 L38.1961176,14.4239412 L38.1961176,24.0752941 L28.5443529,24.0752941 L28.5443529,14.4239412 Z M41.8355,14.4239412 L51.4876765,14.4239412 L51.4876765,24.0752941 L41.8355,24.0752941 L41.8355,14.4239412 Z" id="Shape"></path>
        </g>
    </g>
</svg>