<?xml version="1.0" encoding="UTF-8"?>
<svg width="197px" height="57px" viewBox="0 0 197 57" version="1.1" xmlns="http://www.w3.org/2000/svg" xmlns:xlink="http://www.w3.org/1999/xlink">
    <!-- Generator: Sketch 51.2 (57519) - http://www.bohemiancoding.com/sketch -->
    <title>dynatrace-logo</title>
    <desc>Created with Sketch.</desc>
    <defs></defs>
    <g id="dynatrace-logo" stroke="none" stroke-width="1" fill="none" fill-rule="evenodd">
        <g transform="translate(13.000000, 20.000000)" fill="#000000" fill-rule="nonzero">
            <path d="M123.689803,7.734375 L119.698372,7.734375 C118.641817,7.734375 117.820051,7.96875 117.350471,8.4375 C116.880891,8.90625 116.646101,9.7265625 116.646101,10.78125 L116.646101,24.375 L114.298201,24.375 L114.298201,10.546875 C114.298201,9.4921875 114.532991,8.3203125 115.002571,7.5 C116.059126,5.9765625 118.054841,5.625 119.463582,5.625 L123.689803,5.625 L123.689803,7.734375 Z M108.428449,22.265625 C107.371894,22.265625 106.550129,22.03125 106.080548,21.5625 C105.610968,21.09375 105.376178,20.390625 105.376178,19.3359375 L105.376178,7.734375 L110.306769,7.734375 L110.306769,5.625 L105.376178,5.625 L105.376178,0 L103.028278,0 L103.028278,19.3359375 C103.028278,20.390625 103.263068,21.5625 103.732648,22.3828125 C104.789203,24.0234375 106.667524,24.2578125 108.076264,24.2578125 L112.41988,24.2578125 L112.41988,22.1484375 C112.41988,22.265625 108.428449,22.265625 108.428449,22.265625 Z M46.6786632,0 L46.6786632,5.625 L41.748072,5.625 C38.6958012,5.625 36.9348757,6.5625 35.7609254,7.6171875 C34,9.2578125 34,11.71875 34,11.953125 L34,17.9296875 C34,18.1640625 34,20.625 35.7609254,22.265625 C36.8174807,23.3203125 38.6958012,24.2578125 41.748072,24.2578125 L43.9785775,24.2578125 C45.3873179,24.2578125 47.3830334,23.90625 48.3221937,22.3828125 C48.9091688,21.5625 49.0265638,20.390625 49.0265638,19.3359375 L49.0265638,0 L46.6786632,0 Z M45.9742931,21.5625 C45.5047129,22.03125 44.6829477,22.265625 43.6263925,22.265625 L41.5132819,22.265625 C39.5175664,22.265625 38.3436161,21.6796875 37.6392459,20.9765625 C36.8174807,20.15625 36.4652956,18.984375 36.4652956,18.1640625 L36.4652956,11.953125 C36.4652956,11.1328125 36.8174807,9.9609375 37.6392459,9.140625 C38.3436161,8.4375 39.6349614,7.8515625 41.5132819,7.8515625 L46.6786632,7.8515625 L46.6786632,19.3359375 C46.6786632,20.390625 46.4438732,21.09375 45.9742931,21.5625 Z M145.055698,9.0234375 C145.760069,8.3203125 147.051414,7.734375 148.929734,7.734375 L154.564696,7.734375 L154.564696,5.625 L149.164524,5.625 C146.112254,5.625 144.351328,6.5625 143.177378,7.6171875 C141.416452,9.2578125 141.416452,11.71875 141.416452,11.953125 L141.416452,17.9296875 C141.416452,18.1640625 141.416452,20.625 143.177378,22.265625 C144.233933,23.3203125 146.112254,24.2578125 149.164524,24.2578125 L154.564696,24.2578125 L154.564696,22.1484375 L148.929734,22.1484375 C146.934019,22.1484375 145.760069,21.5625 145.055698,20.859375 C144.233933,20.0390625 143.881748,18.8671875 143.881748,18.046875 L143.881748,11.8359375 C143.881748,11.015625 144.116538,9.84375 145.055698,9.0234375 Z M100.562982,11.953125 C100.562982,11.71875 100.562982,9.2578125 98.8020566,7.6171875 C97.7455013,6.5625 95.9845758,5.625 92.9323051,5.625 L87.6495287,5.625 L87.6495287,7.734375 L93.1670951,7.734375 C95.1628106,7.734375 96.3367609,8.3203125 97.0411311,9.0234375 C97.8628963,9.84375 98.2150814,11.015625 98.2150814,11.8359375 L98.2150814,13.7109375 L90.7017995,13.7109375 C89.2930591,13.7109375 87.2973436,14.0625 86.3581834,15.5859375 C85.7712082,16.40625 85.6538132,17.578125 85.6538132,18.6328125 L85.6538132,19.3359375 C85.6538132,20.390625 85.8886033,21.5625 86.3581834,22.3828125 C87.4147386,24.0234375 89.2930591,24.2578125 90.7017995,24.2578125 L95.5149957,24.2578125 C96.9237361,24.2578125 98.9194516,23.90625 99.8586118,22.3828125 C100.445587,21.5625 100.562982,20.390625 100.562982,19.3359375 L100.562982,11.953125 Z M97.5107112,21.5625 C97.0411311,22.03125 96.2193659,22.265625 95.1628106,22.265625 L91.0539846,22.265625 C89.9974293,22.265625 89.1756641,22.03125 88.706084,21.5625 C88.2365039,21.09375 88.0017138,20.390625 88.0017138,19.3359375 L88.0017138,18.8671875 C88.0017138,17.8125 88.2365039,16.9921875 88.706084,16.640625 C89.1756641,16.2890625 89.9974293,15.9375 91.0539846,15.9375 L98.2150814,15.9375 L98.2150814,19.453125 C98.2150814,20.390625 97.9802913,21.09375 97.5107112,21.5625 Z M139.655527,11.953125 C139.655527,11.71875 139.655527,9.2578125 137.894602,7.6171875 C136.838046,6.5625 134.959726,5.625 131.907455,5.625 L126.624679,5.625 L126.624679,7.734375 L132.142245,7.734375 C134.137961,7.734375 135.311911,8.3203125 136.016281,9.0234375 C136.838046,9.84375 137.190231,11.015625 137.190231,11.8359375 L137.190231,13.7109375 L129.676949,13.7109375 C128.268209,13.7109375 126.272494,14.0625 125.333333,15.5859375 C124.746358,16.40625 124.628963,17.578125 124.628963,18.6328125 L124.628963,19.3359375 C124.628963,20.390625 124.863753,21.5625 125.333333,22.3828125 C126.389889,24.0234375 128.268209,24.2578125 129.676949,24.2578125 L134.490146,24.2578125 C135.898886,24.2578125 137.894602,23.90625 138.833762,22.3828125 C139.420737,21.5625 139.538132,20.390625 139.538132,19.3359375 C139.655527,19.453125 139.655527,13.2421875 139.655527,11.953125 Z M136.485861,21.5625 C136.016281,22.03125 135.194516,22.265625 134.137961,22.265625 L130.029135,22.265625 C128.972579,22.265625 128.150814,22.03125 127.681234,21.5625 C127.211654,21.09375 126.976864,20.390625 126.976864,19.3359375 L126.976864,18.8671875 C126.976864,17.8125 127.211654,16.9921875 127.681234,16.640625 C128.150814,16.171875 128.972579,15.9375 130.029135,15.9375 L137.190231,15.9375 L137.190231,19.453125 C137.190231,20.390625 136.955441,21.09375 136.485861,21.5625 Z M67.8097686,5.625 L65.344473,5.625 L59.3573265,21.2109375 L53.3701799,5.625 L50.9048843,5.625 L58.1833762,24.375 L55.9528706,30 L58.4181662,30 L67.8097686,5.625 Z M83.7754927,11.953125 C83.7754927,11.71875 83.7754927,9.2578125 82.0145673,7.6171875 C80.958012,6.5625 79.1970865,5.625 76.3796058,5.625 L76.1448158,5.625 C73.327335,5.625 71.5664096,6.5625 70.5098543,7.6171875 C68.7489289,9.2578125 68.7489289,11.71875 68.7489289,11.953125 L68.7489289,24.375 L71.0968295,24.375 L71.0968295,11.953125 C71.0968295,11.1328125 71.3316195,9.9609375 72.2707798,9.140625 C72.97515,8.4375 74.3838903,7.8515625 76.2622108,7.8515625 C78.1405313,7.8515625 79.5492716,8.4375 80.2536418,9.140625 C81.075407,9.9609375 81.4275921,11.1328125 81.4275921,11.953125 L81.4275921,24.375 L83.7754927,24.375 L83.7754927,11.953125 Z M169.239075,7.6171875 C168.182519,6.5625 166.421594,5.625 163.604113,5.625 L163.369323,5.625 C160.551842,5.625 158.790917,6.5625 157.734362,7.6171875 C155.973436,9.2578125 155.973436,11.71875 155.973436,11.953125 L155.973436,17.9296875 C155.973436,18.1640625 155.973436,20.625 157.734362,22.265625 C158.790917,23.3203125 160.551842,24.2578125 163.369323,24.2578125 L168.886889,24.2578125 L168.886889,22.1484375 L163.486718,22.1484375 C161.608398,22.1484375 160.199657,21.5625 159.495287,20.859375 C158.673522,20.0390625 158.321337,18.8671875 158.321337,18.046875 L158.321337,15.8203125 L171,15.8203125 L171,11.953125 C170.882605,11.71875 170.882605,9.2578125 169.239075,7.6171875 Z M158.321337,13.7109375 L158.321337,11.8359375 C158.321337,11.015625 158.556127,9.84375 159.495287,9.0234375 C160.199657,8.3203125 161.608398,7.734375 163.486718,7.734375 C165.365039,7.734375 166.773779,8.3203125 167.478149,9.0234375 C168.299914,9.84375 168.652099,11.015625 168.652099,11.8359375 L168.652099,13.7109375 L158.321337,13.7109375 Z" id="Shape"></path>
            <g id="group">
                <path d="M10.0384615,2.76923077 C9.69230769,4.73076923 9.23076923,7.73076923 9,10.7307692 C8.53846154,16.0384615 8.76923077,19.6153846 8.76923077,19.6153846 L1.26923077,26.7692308 C1.26923077,26.7692308 0.692307692,22.8461538 0.461538462,18.3461538 C0.346153846,15.5769231 0.230769231,13.1538462 0.230769231,11.6538462 L0.230769231,11.4230769 C0.230769231,11.3076923 0.346153846,10.3846154 1.26923077,9.34615385 C2.42307692,8.19230769 10.1538462,2.07692308 10.0384615,2.76923077 Z" id="Shape"></path>
                <path d="M10.0384615,2.76923077 C9.69230769,4.73076923 9.23076923,7.73076923 9,10.7307692 C9,10.7307692 0.692307692,9.69230769 0.230769231,11.7692308 C0.230769231,11.6538462 0.346153846,10.5 1.38461538,9.46153846 C2.42307692,8.42307692 10.1538462,2.07692308 10.0384615,2.76923077 Z" id="Shape"></path>
                <path d="M0.230769231,11.1923077 L0.230769231,11.6538462 C0.346153846,11.3076923 0.461538462,11.0769231 0.807692308,10.6153846 C1.38461538,9.92307692 2.30769231,9.69230769 2.76923077,9.69230769 C4.84615385,9.46153846 7.73076923,9.11538462 10.8461538,9 C16.0384615,8.76923077 19.6153846,9.23076923 19.6153846,9.23076923 L27.1153846,2.07692308 C27.1153846,2.07692308 23.1923077,1.38461538 18.6923077,0.807692308 C15.8076923,0.461538462 13.1538462,0.230769231 11.7692308,0.230769231 C11.6538462,0.230769231 10.6153846,0.115384615 9.69230769,1.03846154 C8.53846154,2.07692308 3.23076923,7.15384615 1.03846154,9.23076923 C0.115384615,10.1538462 0.230769231,11.1923077 0.230769231,11.1923077 Z" id="Shape"></path>
                <path d="M26.7692308,20.3076923 C24.6923077,20.5384615 21.8076923,20.8846154 18.6923077,21 C13.5,21.2307692 9.92307692,20.7692308 9.92307692,20.7692308 L2.42307692,27.9230769 C2.42307692,27.9230769 6.34615385,28.7307692 10.8461538,29.1923077 C13.6153846,29.5384615 16.0384615,29.6538462 17.4230769,29.7692308 C17.5384615,29.7692308 17.6538462,29.6538462 17.7692308,29.6538462 C17.8846154,29.6538462 18.9230769,29.4230769 19.8461538,28.5 C21,27.4615385 27.3461538,20.1923077 26.7692308,20.3076923 Z" id="Shape"></path>
                <path d="M26.7692308,20.3076923 C24.6923077,20.5384615 21.8076923,20.8846154 18.6923077,21 C18.6923077,21 19.2692308,29.3076923 17.3076923,29.6538462 C17.4230769,29.6538462 18.8076923,29.5384615 19.7307692,28.6153846 C20.8846154,27.6923077 27.3461538,20.1923077 26.7692308,20.3076923 Z" id="Shape"></path>
                <path d="M17.7692308,29.7692308 L17.3076923,29.7692308 C17.6538462,29.6538462 17.8846154,29.5384615 18.3461538,29.3076923 C19.1538462,28.7307692 19.3846154,27.6923077 19.5,27.3461538 C19.8461538,25.3846154 20.3076923,22.3846154 20.5384615,19.3846154 C21,14.0769231 20.6538462,10.5 20.6538462,10.5 L28.1538462,3.34615385 C28.1538462,3.34615385 28.7307692,7.26923077 28.9615385,11.7692308 C29.1923077,14.6538462 29.1923077,17.3076923 29.1923077,18.6923077 C29.1923077,18.8076923 29.3076923,19.8461538 28.2692308,20.7692308 C27.2307692,21.8076923 21.9230769,26.8846154 19.7307692,28.9615385 C18.9230769,29.8846154 17.8846154,29.7692308 17.7692308,29.7692308 Z" id="Shape"></path>
            </g>
        </g>
    </g>
</svg>