<svg width="68" height="68" viewBox="0 0 68 68" xmlns="http://www.w3.org/2000/svg" xmlns:xlink="http://www.w3.org/1999/xlink"><title>gcn-icon</title><defs><rect id="a" width="68" height="68" rx="6"/></defs><g fill="none" fill-rule="evenodd"><mask id="b" fill="#fff"><use xlink:href="#a"/></mask><use fill="#1C67C0" xlink:href="#a"/><circle fill="#4583CB" mask="url(#b)" cx="9" cy="69" r="49"/><path d="M63 95c27.062 0 49-21.938 49-49S90.062-3 63-3 14 18.938 14 46s21.938 49 49 49z" fill="#3175C5" mask="url(#b)"/><path d="M20.62 21.386C42.075 26.604 58 45.942 58 69c0 8.972-2.41 17.38-6.62 24.614C29.925 88.396 14 69.058 14 46c0-8.972 2.41-17.38 6.62-24.614z" fill="#558ECF" mask="url(#b)"/><path d="M20.556 40.308c.464 0 .89-.022 1.278-.066.388-.044.754-.11 1.098-.198a7.48 7.48 0 0 0 .972-.318c.304-.124.608-.266.912-.426v-3.792h-2.664a.507.507 0 0 1-.366-.132.43.43 0 0 1-.138-.324v-1.32h5.28v6.6a9.195 9.195 0 0 1-2.85 1.398 10.86 10.86 0 0 1-1.71.348 16.01 16.01 0 0 1-1.98.114c-1.248 0-2.392-.214-3.432-.642a7.903 7.903 0 0 1-2.688-1.8c-.752-.772-1.338-1.698-1.758-2.778-.42-1.08-.63-2.268-.63-3.564 0-1.312.206-2.508.618-3.588.412-1.08 1-2.006 1.764-2.778.764-.772 1.688-1.37 2.772-1.794 1.084-.424 2.298-.636 3.642-.636.68 0 1.312.05 1.896.15.584.1 1.126.244 1.626.432s.962.416 1.386.684c.424.268.82.57 1.188.906l-.66 1.056c-.136.216-.312.324-.528.324a.85.85 0 0 1-.42-.132c-.2-.112-.424-.248-.672-.408a5.755 5.755 0 0 0-.906-.462 7.295 7.295 0 0 0-1.26-.378c-.484-.104-1.058-.156-1.722-.156-.968 0-1.844.158-2.628.474a5.56 5.56 0 0 0-2.004 1.356c-.552.588-.976 1.3-1.272 2.136-.296.836-.444 1.774-.444 2.814 0 1.088.154 2.058.462 2.91.308.852.742 1.574 1.302 2.166a5.62 5.62 0 0 0 1.992 1.356c.768.312 1.616.468 2.544.468zm22.068-1.86c.128 0 .244.052.348.156l.912.996a7.357 7.357 0 0 1-2.562 1.908c-1.004.456-2.214.684-3.63.684-1.24 0-2.364-.214-3.372-.642a7.39 7.39 0 0 1-2.58-1.8c-.712-.772-1.264-1.698-1.656-2.778-.392-1.08-.588-2.268-.588-3.564 0-1.296.21-2.484.63-3.564a8.144 8.144 0 0 1 1.77-2.784 7.92 7.92 0 0 1 2.73-1.806c1.06-.428 2.23-.642 3.51-.642 1.264 0 2.354.196 3.27.588.916.392 1.73.924 2.442 1.596l-.756 1.068a.824.824 0 0 1-.192.198.528.528 0 0 1-.312.078.608.608 0 0 1-.33-.114c-.116-.076-.254-.17-.414-.282a8.934 8.934 0 0 0-.564-.36 4.943 4.943 0 0 0-.768-.36 6.345 6.345 0 0 0-1.032-.282 7.183 7.183 0 0 0-1.356-.114c-.92 0-1.762.158-2.526.474a5.656 5.656 0 0 0-1.974 1.35c-.552.584-.982 1.296-1.29 2.136-.308.84-.462 1.78-.462 2.82 0 1.072.154 2.028.462 2.868.308.84.728 1.55 1.26 2.13a5.312 5.312 0 0 0 1.89 1.326 6.042 6.042 0 0 0 2.352.456c.512 0 .972-.03 1.38-.09.408-.06.786-.154 1.134-.282a4.8 4.8 0 0 0 .972-.486 7.6 7.6 0 0 0 .906-.702c.136-.12.268-.18.396-.18zM46.608 42V29.844h1.272c.304 0 .496.148.576.444l.168 1.32a6.832 6.832 0 0 1 1.77-1.416c.652-.36 1.406-.54 2.262-.54.664 0 1.25.11 1.758.33a3.4 3.4 0 0 1 1.272.936c.34.404.598.89.774 1.458.176.568.264 1.196.264 1.884V42h-2.136v-7.74c0-.92-.21-1.634-.63-2.142-.42-.508-1.062-.762-1.926-.762a3.59 3.59 0 0 0-1.77.456 5.83 5.83 0 0 0-1.518 1.236V42h-2.136z" fill="#FFF" mask="url(#b)"/></g></svg>