<svg width="21" height="16" viewBox="0 0 21 16" xmlns="http://www.w3.org/2000/svg"><title>github-logo</title><path d="M15.332 0c.273.616.45 1.64.186 2.39 1.08.914 1.45 3.14.93 4.96 1.537.116 3.37-.057 4.552.413-1.106-.142-2.615-.42-4.04-.322-.272.02-.672-.01-.652.368 1.65.13 3.29.27 4.646.69-1.344-.22-2.976-.55-4.646-.597-.69 1.354-2.08 2.02-3.995 2.16.206.445.6.614.696 1.33.143 1.072-.225 2.64.138 3.354.175.342.46.35.65.643-.468.552-1.632-.062-1.765-.643-.227-.996.346-2.54-.278-3.215.044 1.085-.258 2.61.047 3.58.12.383.467.53.37.874-2.18.22-1.27-2.807-1.626-4.593-.33.024-.184.49-.185.69-.01 1.744.36 4.137-1.532 3.904-.056-.367.254-.49.37-.826.346-.982-.063-2.445.095-3.63-.722.542.076 2.43-.372 3.4-.257.557-1.087.8-1.718.55.082-.414.514-.347.697-.734.254-.54 0-1.316.092-2.113-1.337.266-2.374-.037-2.882-.872-.227-.374-.283-.816-.557-1.148-.273-.332-.71-.377-.836-.826 1.655-.396 1.72 1.693 3.206 1.745.456.015.693-.132 1.115-.23.118-.527.37-.92.743-1.195C6.93 9.853 5.404 9.28 4.694 7.9c-1.682.083-3.22.306-4.647.643 1.294-.467 2.89-.634 4.6-.69-.1-.6-.984-.435-1.533-.412-1.02.045-2.303.17-3.113.323 1.175-.417 2.823-.365 4.414-.368-.487-1.517-.318-3.926.744-4.823C4.858 1.82 4.95.587 5.343 0c1.185.053 1.904.566 2.65 1.057.922-.26 1.893-.39 3.158-.322.533.03 1.086.267 1.487.23.393-.037.827-.476 1.208-.643.498-.218.918-.302 1.487-.322z" fill="#86939E" fill-rule="nonzero"/></svg>