<?xml version="1.0" encoding="UTF-8"?>
<svg width="102px" height="102px" viewBox="0 0 102 102" version="1.1" xmlns="http://www.w3.org/2000/svg" xmlns:xlink="http://www.w3.org/1999/xlink">
    <!-- Generator: Sketch 51.1 (57501) - http://www.bohemiancoding.com/sketch -->
    <title>icon-enablement</title>
    <desc>Created with Sketch.</desc>
    <defs>
        <path d="M2.40204082,12.227551 C-0.189795918,9.63571429 -0.186734694,5.42857143 2.39693878,2.84489796 C4.98673469,0.255102041 9.18877551,0.258163265 11.7806122,2.84897959 L40.9897959,32.0581633 C43.5816327,34.6510204 43.5785714,38.8571429 40.9938776,41.4418367 C38.4040816,44.0316327 34.2020408,44.0285714 31.6112245,41.4367347 L2.40204082,12.227551 Z" id="path-1"></path>
        <path d="M1.88571429,9.43265306 C-0.187755102,7.35816327 -0.185714286,3.99285714 1.88265306,1.9255102 C3.95408163,-0.145918367 7.3122449,-0.147959184 9.38877551,1.92959184 L27.6091837,20.15 C29.6836735,22.2244898 29.6816327,25.5887755 27.6132653,27.6571429 C25.5418367,29.7285714 22.1836735,29.7295918 20.1071429,27.6530612 L1.88571429,9.43265306 Z" id="path-3"></path>
        <path d="M1.68367347,9.62755102 C-0.386734694,7.59897959 -0.380612245,4.30408163 1.68673469,2.27857143 C3.75816327,0.247959184 7.12040816,0.251020408 9.18673469,2.2755102 L27.95,20.6612245 C30.0204082,22.6897959 30.0142857,25.9836735 27.9469388,28.0102041 C25.8744898,30.0397959 22.5122449,30.0367347 20.4469388,28.0122449 L1.68367347,9.62755102 Z" id="path-5"></path>
        <path d="M2.62857143,11.155102 C0.0367346939,8.61530612 0.0397959184,4.49489796 2.6244898,1.9622449 C5.21428571,-0.575510204 9.41734694,-0.571428571 12.0071429,1.96530612 L42.0112245,31.3663265 C44.6030612,33.905102 44.5989796,38.0265306 42.0142857,40.5591837 C39.4244898,43.0969388 35.2214286,43.0928571 32.6326531,40.5561224 L2.62857143,11.155102 Z" id="path-7"></path>
        <path d="M29.7663265,75.4693878 L23.1438776,68.9795918 L67.6795918,24.4438776 L74.2357143,31.0010204 L29.7663265,75.4693878 Z M13.0571429,92.1795918 L8.15612245,97.0795918 C6.97346939,98.2632653 5.02959184,98.2683673 3.83367347,97.072449 L1.60714286,94.8459184 C0.410204082,93.6479592 0.408163265,91.7153061 1.6,90.5234694 L6.43367347,85.6897959 L13.0571429,92.1795918 Z M91.0418367,14.194898 L84.4857143,7.6377551 L91.0704082,1.05306122 C92.2540816,-0.130612245 94.1979592,-0.135714286 95.3928571,1.06020408 L97.6193878,3.28673469 C98.8173469,4.48469388 98.8183673,6.41836735 97.627551,7.60918367 L91.0418367,14.194898 Z" id="path-9"></path>
    </defs>
    <g id="Symbols" stroke="none" stroke-width="1" fill="none" fill-rule="evenodd">
        <g id="Value-Proposition" transform="translate(-1059.000000, -228.000000)">
            <g id="enablement" transform="translate(965.000000, 229.000000)">
                <g id="icon-enablement" transform="translate(95.000000, 0.000000)">
                    <g id="Group-3" transform="translate(54.081633, 0.000000)">
                        <g id="Fill-1-Clipped">
                            <mask id="mask-2" fill="white">
                                <use xlink:href="#path-1"></use>
                            </mask>
                            <g id="path-1"></g>
                            <polygon id="Fill-1" fill="#ECEFF1" fill-rule="nonzero" mask="url(#mask-2)" points="0.448979592 43.4489796 42.9387755 43.4489796 42.9387755 0.836734694 0.448979592 0.836734694"></polygon>
                        </g>
                    </g>
                    <path d="M56.4836735,12.227551 C53.8918367,9.63571429 53.894898,5.42857143 56.4785714,2.84489796 C59.0683673,0.255102041 63.2704082,0.258163265 65.8622449,2.84897959 L95.0714286,32.0581633 C97.6632653,34.6510204 97.6602041,38.8571429 95.0755102,41.4418367 C92.4857143,44.0316327 88.2836735,44.0285714 85.6928571,41.4367347 L56.4836735,12.227551 Z" id="Stroke-4" stroke="#243138" stroke-width="2" stroke-linecap="round" stroke-linejoin="round"></path>
                    <g id="Group-8" transform="translate(70.408163, 0.000000)">
                        <g id="Fill-6-Clipped">
                            <mask id="mask-4" fill="white">
                                <use xlink:href="#path-3"></use>
                            </mask>
                            <g id="path-3"></g>
                            <polygon id="Fill-6" fill="#ECEFF1" fill-rule="nonzero" mask="url(#mask-4)" points="0.285714286 29.244898 29.1836735 29.244898 29.1836735 0.346938776 0.285714286 0.346938776"></polygon>
                        </g>
                    </g>
                    <path d="M72.2938776,9.43265306 C70.2204082,7.35816327 70.222449,3.99285714 72.2908163,1.9255102 C74.3622449,-0.145918367 77.7204082,-0.147959184 79.7969388,1.92959184 L98.0173469,20.15 C100.091837,22.2244898 100.089796,25.5887755 98.0214286,27.6571429 C95.95,29.7285714 92.5918367,29.7295918 90.5153061,27.6530612 L72.2938776,9.43265306 Z" id="Stroke-9" stroke="#243138" stroke-width="2" stroke-linecap="round" stroke-linejoin="round"></path>
                    <g id="Group-13" transform="translate(0.000000, 70.408163)">
                        <g id="Fill-11-Clipped">
                            <mask id="mask-6" fill="white">
                                <use xlink:href="#path-5"></use>
                            </mask>
                            <g id="path-5"></g>
                            <polygon id="Fill-11" fill="#ECEFF1" fill-rule="nonzero" mask="url(#mask-6)" points="0.0408163265 29.6122449 29.5510204 29.6122449 29.5510204 0.714285714 0.0408163265 0.714285714"></polygon>
                        </g>
                    </g>
                    <path d="M1.68367347,80.0357143 C-0.386734694,78.0071429 -0.380612245,74.7122449 1.68673469,72.6867347 C3.75816327,70.6561224 7.12040816,70.6591837 9.18673469,72.6836735 L27.95,91.0693878 C30.0204082,93.0979592 30.0142857,96.3918367 27.9469388,98.4183673 C25.8744898,100.447959 22.5122449,100.444898 20.4469388,98.4204082 L1.68367347,80.0357143 Z" id="Stroke-14" stroke="#243138" stroke-width="2" stroke-linecap="round" stroke-linejoin="round"></path>
                    <g id="Group-18" transform="translate(0.000000, 55.102041)">
                        <g id="Fill-16-Clipped">
                            <mask id="mask-8" fill="white">
                                <use xlink:href="#path-7"></use>
                            </mask>
                            <g id="path-7"></g>
                            <polygon id="Fill-16" fill="#ECEFF1" fill-rule="nonzero" mask="url(#mask-8)" points="0.653061224 42.4693878 44 42.4693878 44 -0.0204081633 0.653061224 -0.0204081633"></polygon>
                        </g>
                    </g>
                    <path d="M2.62857143,66.2571429 C0.0367346939,63.7173469 0.0397959184,59.5969388 2.6244898,57.0642857 C5.21428571,54.5265306 9.41734694,54.5306122 12.0071429,57.0673469 L42.0112245,86.4683673 C44.6030612,89.0071429 44.5989796,93.1285714 42.0142857,95.6612245 C39.4244898,98.1989796 35.2214286,98.194898 32.6326531,95.6581633 L2.62857143,66.2571429 Z" id="Stroke-19" stroke="#243138" stroke-width="2" stroke-linecap="round" stroke-linejoin="round"></path>
                    <g id="Group-23" transform="translate(1.020408, 0.000000)">
                        <g id="Fill-21-Clipped">
                            <mask id="mask-10" fill="white">
                                <use xlink:href="#path-9"></use>
                            </mask>
                            <g id="path-9"></g>
                            <polygon id="Fill-21" fill="#CFD8DC" fill-rule="nonzero" mask="url(#mask-10)" points="0.612244898 98.0612245 98.5714286 98.0612245 98.5714286 0.102040816 0.612244898 0.102040816"></polygon>
                        </g>
                    </g>
                    <path d="M30.7867347,75.4693878 L75.2561224,31.0010204 L68.7,24.4438776 L24.1642857,68.9795918 L30.7867347,75.4693878 Z M14.077551,92.1795918 L9.17653061,97.0795918 C7.99387755,98.2632653 6.05,98.2683673 4.85408163,97.072449 L2.62755102,94.8459184 C1.43061224,93.6489796 1.42857143,91.7153061 2.62040816,90.5234694 L7.45408163,85.6897959 L14.077551,92.1795918 Z M92.0622449,14.194898 L98.6479592,7.60918367 C99.8387755,6.41836735 99.8377551,4.48469388 98.6397959,3.28673469 L96.4132653,1.06020408 C95.2183673,-0.135714286 93.2744898,-0.130612245 92.0908163,1.05306122 L85.5061224,7.6377551 L92.0622449,14.194898 Z" id="Stroke-24" stroke="#243138" stroke-width="2" stroke-linecap="round" stroke-linejoin="round"></path>
                </g>
            </g>
        </g>
    </g>
</svg>