<svg width="130" height="130" viewBox="0 0 130 130" xmlns="http://www.w3.org/2000/svg"><title>jenkins</title><g transform="translate(32 20)" fill="#7F7F7F" fill-rule="evenodd"><path d="M28.655 16.195c.993-2.215 2.622-4.35 5.9-3.586.628-1.036-.496-1.796-1.328-1.92-1.93-.292-4.295 1.855-4.882 3.47-.224.613-.577 1.82.31 2.035zm24.34 4.68c-.935-1.36-1.576-2.99-2.316-4.528l-.157-.006c-.105 1.77.553 2.837 1.01 4.088-.79.497-2.325.187-3.214.576-.065 2.618 4.05 1.328 4.675-.13zm-19.18.516c-1.23 1.948 2.407 2.314 3.97 1.852.427-.125 1.167-.766 1.27-1.054.432-1.22-.442-1.753-.892-2.19-1-.975-1.228-2.33-1.93-3.617-.487 1.382.834 3.727 1.576 4.912-.967.938-2.703.16-3.994.1zm7.296 10.856c3.854.38 6.476-1.262 8.827-2.772-.094-.592.712-1.66.488-2.55-.077-.306-.775-.75-1.198-1.214-1.725-1.88-4.088-4.692-5.027-6.89-.104-.242-.167-1.573-.894-1.046-.088 3.245 2.325 5.932 4.123 8.1.877 1.058 1.937 1.662.962 3.306-1.573.598-4.117 2.31-6.303 1.936-1.162-.198-.9-1.515-1.316-2.23-.8 1.052-.486 2.644.337 3.36zm-25.33-7.21c-.626 1.223-.476 3.602.375 4.375-.005-1.45-.23-3.927 1.006-3.852.866.052 1.042 1.905 1.78 2.326.812-3.913-4.08-5.892-4.587-2.2.396-.26.714-.997 1.427-.647zm29.8 10.42c3.21-.068 4.76-2.362 5.854-4.445-1.88.858-3.396 2.107-5.85 2.343-.12.405-.07 1.43-.005 2.102zm-.784.124c-.006-.744-.002-1.497-.152-2.107-2.784.08-6.55-.034-8.597-1.112.938 2.513 5.17 3.4 8.75 3.22zm-9.138-1.21c-1.81.002-.284 1.008.023 1.402.636.816 1.38 2.207 2.538 2.823 1.827.97 5.455.564 6.77.03.488-.2.88-.744 1.06-1.206-4.105.097-8.974.507-10.39-3.05zm18.07 31.916c1.814.116 3.122-1.693 4.983-2.065-2.237.067-3.986.66-4.983 2.066zm.967 1.127c1.538.126 3.32-.12 4.837-.28-1.303-.45-4.11-.833-4.837.28zm-.082 2.098c1.62.137 3.74.17 5.445.135-1.106-.515-4.486-1.163-5.445-.134z"/><circle cx="42.669" cy="53.949" r="1"/><circle cx="43.33" cy="57.016" r="1"/><path d="M62.448 62.186c-.417-.89-1.023-1.448-1.742-1.765a33.664 33.664 0 0 0 4.528-16.93c0-9.178-3.638-17.497-9.525-23.516a33.01 33.01 0 0 0-.854-.84c-.197-3.49-.873-6.777-2.133-9.325-1.104-2.233-4.19-5.316-6.12-6.777C42.047-.41 33.63-.79 28.144 1.23c-1.53.562-3.01 1.065-4.354 1.854-3.592 2.11-7.407 3.522-8.473 7.767-2.28 1.023-3.176 3.693-3.286 6.932a32.954 32.954 0 0 0-2.362 2.192C3.782 25.994.143 34.31.143 43.49c0 9.175 3.64 17.494 9.525 23.514.62.633 1.266 1.242 1.935 1.823.05.71.094 1.42.14 2.138.094 1.466-.06 3.017.32 3.827.392.836 1.845 1.104 2.895 1.59 3.035 1.405 6.253 3.547 10.232 3.122.95 3.19 1.846 6.586 2.984 9.378 4.08 1.468 10.52 1.238 14.763.728 1.29-.156 2.65-.792 2.954-1.91-.09-.69-.19-1.37-.148-2.186 1.327-.274 3.132-.5 3.424-1.968.41-2.06-1.3-5.01-.73-7.268.768-.25 1.587-.444 1.465-1.655 1.295-.674 2.83-.826 4.468-.762.21.41.51.8.78 1.026 2.296.46 4.52.5 6.424-.123 2.157-.704 3.186-5.115 2.692-7.213-.35-1.487-1.14-3.923-1.816-5.364zM26.57 3.66c.2-.057.372.077.537.253-.022.57-.584.558-.963.74-.592.727-1.455 1.067-2.174 1.863-.737.815-1.562 3.007-2.54 3.25-.49.12-1.05-.086-1.475-.058-1.13.07-1.924.65-3.07.815 1.48-3.23 6.09-5.845 9.686-6.864zM15.204 13.804C16.67 12.19 18.69 11.185 21.15 11c1.266 3.225-.91 7.056-.1 10.583.25 1.08 1.108 2.755-.263 2.792.036-3.073-3.776-5.022-6.648-3.216-.193-2.33-.526-5.607 1.063-7.355zm-2.5 12.28c.11-2.12 1.903-4.147 4.353-3.88 1.733.19 2.32 2.08 2.657 3.763.998.053 2.44-.042 2.913-.82-.068-1.903-.95-3.427-.89-5.174.114-3.282 1.902-6.244.522-9.476 1.477-3.35 5.81-5.994 9.013-7.59 3.973-1.98 10.292-.397 14.025 1.71 2.144 1.21 3.728 3.55 5.236 5.496-2.114-.628-3.916.45-3.587 2.196 1.77-1.623 4.797-.017 5.69 1.778.857 1.716.852 4.258.983 6.81.32 6.186-1.132 12.568-4.24 17.04-.83 1.194-1.53 2.498-2.697 3.32-2.818 1.978-7.1 3.77-10.765 2.54-4.845-1.625-7.046-4.852-9.71-8.55.072 2.032 1.5 3.698 2.91 5.25 1.227 1.355 2.708 2.885 4.3 3.516-1.328-.312-3.368-.41-3.922.783-3.1-.206-5.982-.523-7.45-2.625-1.155-1.657-2.33-4.473-2.856-6.65-.107-.447-.292-1.4-.247-1.644.173-.944 1.855-1.358 1.193-2.678-1.22-.012-1.495 1.11-2.615 1.222-2.9.287-4.947-3.844-4.815-6.336zM38.11 53.46c1.97 2.5 3.167 5.714 4.486 8.816-3.116-.94-6.3-2.464-9.03-4.01.535-2.323 2.636-3.526 4.544-4.806zm-.865-7.817c.022-.083.157-.045.162-.148 1.95.87 4.432-.354 6.403-.53-.856.558-1.585 1.256-2.407 1.852-1.824.09-2.818-.126-4.158-1.173zm1.912 6.925c.227-.24.43-.507.65-.753.973.406 1.607-.533 2.354-.453.858.09 1.536 1.273 2.757 1.195-.195 3.186-.093 6.384-.982 9.303-1.657-3.04-2.632-6.707-4.778-9.293zm6.69.104c1.73-.81 3.21.18 3.92 1.318-1.663 2.847-3.254 5.772-5.226 8.283.828-2.43 1.182-6.5 1.307-9.6zM13.602 73.215c-.227-8.078-1.514-16.46-4.703-23.3 3.343-2.582 7.085-5.31 11.087-6.89.303-.12 2.515 2.76 2.842 2.992 1.79 1.273 4.018 2.278 6.1 3.27.127.956.422 2.194.94 3.85.572 1.83 1.044 4.413 3.46 3.094-.228 1.045-1.57 1.693-1.2 2.912.232.764 2.77 1.708 3.574 2.162 1.484.837 2.84 1.3 3.98 1.79-5.183.14-10.05.562-14.84 1.214-.572-.888-.34-2.258-.4-3.674-.067-1.536.572-5-.033-5.216-.68-.243-.81 1.14-.833 1.446-.128 1.623.772 5.06-.116 7.002-.97-.275-1.45-1.006-2.36-1.338-.357 1.125.74 1.18.627 1.894-.15.944-1.938.155-1.928 1.56 1.164.186 2.95-.363 4.196.162.325 3.82.85 7.44 1.422 11.498-4.956-.257-8.164-2.72-11.816-4.428zm15.506 13.68c-2.212-6.78-3.42-13.217-4.25-20.873 5.16-.965 12.593-1.804 17.852-.71.48 3.132.302 6.22.653 9.29.466 4.082.118 8.74.915 12.567-4.34 1.346-10.26 1.216-15.17-.275zm18.437-3.724c-.942.318-1.484.596-2.747.594-.09-1.993-.355-5.04-.276-6.94.62.042 1.537-.443 2.036-.31.245 2.14 1.094 4.31.987 6.656zm-3.193-7.987c-.25-3.292-.443-6.535-.398-9.823.894-.3 1.683-.28 2.58-.29.776 2.804.73 6.37 1.11 9.54-1.173.257-2.03.384-3.292.573zm.694-11.882c1.9-3.294 3.965-6.406 5.826-9.74-.283-.66-.978-.942-1.18-1.678 1.307-2.468.706-10.127-2.63-8.51.468-.685 1.692-1.25 2.262-2.093 1.407 1.133 2.256 2.2 3.604 3.41.732.656 2.17 1.443 2.317 2.503.08.592-.282 2.043-.416 2.708-.592 2.92-1.92 6.78-3.185 9.84-.46 1.114-.9 2.504-1.507 2.744-1.662.658-3.68-.063-5.092.816zm6.718 9.446c-.74.142-1.222.567-2.123.54-.23-2.815-.882-5.772-1.15-8.453.572-.01 1.27-.143 1.868-.005 1.19 2.045 1.446 5.448 1.406 7.917zm8.293.943c-1.367.33-3.463.42-4.36-.014 1.097-.6 2.742-.603 4.01-1.013-1.816-.783-4.503-.045-6.687-.182-.264-2.696-.462-5.62-1.102-7.748 1.275-1.355 4.355-1.68 6.103-2.8 1.076-.688 2.422.295 2.918 1.046.672 1.016 1.3 4.005 1.652 5.592.525 2.362-.656 4.66-2.533 5.118zm-11.364-22.16c-2.04-.06-3.883-.302-5.497-.757.11-.66-.096-1.31.07-1.787.45-.325 1.203-.32 1.883-.396-.59-.29-1.416-.403-2.094-.237-.016-.46-.222-.743-.347-1.103 1.147-.41 3.855-3.094 5.378-2.205.726.422 1.034 2.837 1.09 4.01.047.975-.088 1.958-.485 2.474zM38.936 48.2l-.018.466c-.637.418-1.665.414-2.364.765a6.142 6.142 0 0 1 2.544.642l-.046 1.167c-1.168.798-2.234 1.99-3.61 2.738-.65.355-2.93 1.267-3.623 1.106-.392-.09-.427-.577-.583-1.034-.334-.98-1.1-2.54-1.168-4.016-.086-1.864-.274-4.988 1.734-4.603 1.62.31 3.505 1.056 4.76 1.742.766.42 1.21.937 2.372 1.026zm1.16 2.224c-.178-1.015-.384-1.305-.304-2.19 2.707-1.806 3.215 3.1.304 2.19z"/></g></svg>