<?xml version="1.0" encoding="UTF-8"?>
<svg width="130px" height="130px" viewBox="0 0 130 130" version="1.1" xmlns="http://www.w3.org/2000/svg" xmlns:xlink="http://www.w3.org/1999/xlink">
    <!-- Generator: Sketch 51.2 (57519) - http://www.bohemiancoding.com/sketch -->
    <title>kubernetes</title>
    <desc>Created with Sketch.</desc>
    <defs></defs>
    <g id="kubernetes" stroke="none" stroke-width="1" fill="none" fill-rule="evenodd" opacity="0.5">
        <g id="logo" transform="translate(19.000000, 20.000000)" fill="#000000" fill-rule="nonzero">
            <path d="M39.5582813,53.0353125 C39.384001,52.2703446 38.7093989,51.7236158 37.9249219,51.7115625 C37.8129214,51.7102941 37.7010641,51.7199492 37.5909375,51.7403906 L37.5745313,51.7197656 L27.6107813,53.4105469 C29.1482813,57.6651563 32.023125,61.1327344 35.6320313,63.4488281 L39.4921875,54.12 L39.4633594,54.0827344 C39.6009375,53.7630469 39.6414844,53.4007031 39.5582813,53.0353125 Z M36.2465625,45.8552344 C36.595049,45.7600195 36.9041876,45.5563623 37.1292187,45.27375 C37.6996875,44.5582031 37.5989062,43.5260156 36.9145312,42.9311719 L36.9227344,42.8899219 L29.3428125,36.1099219 C27.0305063,39.8741806 26.0379511,44.3014255 26.521875,48.6925781 L36.2383594,45.8882812 L36.2465625,45.8552344 Z M49.4064844,36.8688281 C49.422075,37.2285775 49.552143,37.5739474 49.7777344,37.8546094 C50.3465434,38.567067 51.3755463,38.7051972 52.1121094,38.1679688 L52.1409375,38.1803906 L60.3890625,32.3322656 C57.2772656,29.2849219 53.21625,27.2967187 48.825,26.7564844 L49.3982812,36.8646094 L49.4064844,36.8688281 Z M43.6080469,48.8329688 L46.4041406,50.1773438 L49.1922656,48.8369531 L49.8850781,45.8264063 L47.9547656,43.41375 L44.8492969,43.41375 L42.9152344,45.8221875 L43.6080469,48.8329688 Z M40.6717969,38.205 C40.9626538,38.4175252 41.3137567,38.5316583 41.6739844,38.5307813 C42.5892188,38.5307813 43.3345313,37.8075 43.3729688,36.901875 L43.4142188,36.88125 L43.9875,26.7564844 C43.2959444,26.839383 42.6091024,26.957742 41.9296875,27.1110938 C38.1684375,27.9651563 34.9047656,29.8192969 32.353125,32.3282813 L40.6551563,38.2134375 L40.6715625,38.205 L40.6717969,38.205 Z M63.4120313,36.1141406 L55.873125,42.8610938 L55.8773438,42.8817188 C55.6054984,43.1174955 55.4161285,43.4339879 55.336875,43.785 C55.1334375,44.6770313 55.6708594,45.5667188 56.5453125,45.8057813 L56.55375,45.8470313 L66.3194531,48.6595313 C66.5264062,46.5527344 66.4005469,44.3728125 65.8989844,42.1889063 C65.4079939,40.0414676 64.5678406,37.9891847 63.4120313,36.1139063 L63.4120313,36.1141406 Z" id="Shape"></path>
            <path d="M92.6292188,54.7635937 L84.6616406,20.1541406 C84.24375,18.3398438 83.0158594,16.8128906 81.3250781,16.0054688 L49.0746094,0.605859375 C48.1431502,0.161162742 47.11553,-0.0443290626 46.0846875,0.00796875 C45.2651835,0.0491451586 44.4619702,0.252358223 43.7214844,0.605859375 L11.4752344,16.0136719 C9.78445312,16.8210937 8.5565625,18.3480469 8.13890625,20.1625781 L0.183515625,54.7720312 C-0.187469435,56.3837646 0.114782327,58.0770855 1.02046875,59.4609375 C1.1294066,59.6288324 1.24649993,59.7912925 1.37132812,59.9477344 L23.6908594,87.6989062 C24.8610938,89.1534375 26.6355469,90.0004687 28.5119531,90 L64.305,89.9917969 C66.1807031,89.9932031 67.9549219,89.1478125 69.1260938,87.6946875 L91.4374219,59.9395312 C92.6074294,58.4882851 93.0467384,56.5803794 92.6292188,54.7635937 Z M80.3620313,54.3426562 C80.1269531,55.3732031 79.0155469,55.9996875 77.8710938,55.753125 C77.8628906,55.75125 77.8509375,55.7507812 77.8422656,55.7489062 C77.829375,55.7460937 77.8178906,55.7395312 77.8052344,55.7367187 C77.645625,55.7015625 77.4457031,55.666875 77.3060156,55.629375 C76.6457813,55.4526562 76.1676563,55.18875 75.5739844,54.9614062 C74.296875,54.5032031 73.2391406,54.1204687 72.2088281,53.9714062 C71.6854688,53.9303906 71.4185156,54.18 71.1283594,54.3714844 C70.9872656,54.3433594 70.5532031,54.2664844 70.3033594,54.2271094 C68.4541406,60.039375 64.5157031,65.0716406 59.1764063,68.2244531 C59.26875,68.4471094 59.4250781,68.9200781 59.4982031,69.0039844 C59.3763281,69.3295312 59.1930469,69.6410156 59.3498438,70.1421094 C59.724375,71.1135937 60.3304688,72.0632812 61.06125,73.2063281 C61.4151563,73.734375 61.7772656,74.1403125 62.0964844,74.7445312 C62.1728906,74.889375 62.2741406,75.1113281 62.3479688,75.2641406 C62.844375,76.3253906 62.4801563,77.5476562 61.5271875,78.0067969 C60.5669531,78.4694531 59.3730469,77.9810156 58.8590625,76.9139062 C58.7854688,76.7627344 58.6821094,76.561875 58.62,76.4189062 C58.34625,75.7924219 58.2513281,75.2557031 58.0589063,74.6498437 C57.620625,73.3657031 57.2610938,72.3025781 56.7351563,71.4042187 C56.4410156,70.9692187 56.0800781,70.9136719 55.749375,70.8060937 C55.6882031,70.700625 55.4599219,70.2815625 55.336875,70.0638281 C54.2572913,70.472421 53.1507458,70.8058726 52.0251563,71.0617969 C47.0172656,72.1989844 42.00375,71.7375 37.5250781,70.0183594 L37.0879688,70.8103125 C36.7624219,70.8972656 36.4485938,70.985625 36.2559375,71.2153125 C35.5530469,72.0541406 35.2725,73.3999219 34.7617969,74.6826562 C34.5696094,75.28875 34.4786719,75.8254687 34.2051563,76.4521875 C34.1432813,76.59375 34.0392188,76.7920312 33.9660938,76.9427344 C33.9653906,76.9439062 33.9665625,76.9457812 33.9660938,76.9469531 C33.9651563,76.9483594 33.9625781,76.9492969 33.9616406,76.9509375 C33.4467188,78.0145312 32.2565625,78.5013281 31.2977344,78.0398437 C30.3447656,77.5809375 29.9807813,76.3586719 30.4769531,75.2971875 C30.5507812,75.144375 30.6480469,74.9221875 30.7244531,74.7775781 C31.0436719,74.173125 31.4057813,73.7632031 31.7594531,73.2353906 C32.4902344,72.0921094 33.1319531,71.0667187 33.5064844,70.0952344 C33.6004688,69.7725 33.46125,69.3304687 33.3349219,69.00375 L33.6855469,68.1623437 C28.5480469,65.1182812 24.4905469,60.2667187 22.5546094,54.264375 L21.7132031,54.40875 C21.4877344,54.2821875 21.0342188,53.983125 20.6039063,54.016875 C19.5733594,54.1659375 18.515625,54.5486719 17.2385156,55.0066406 C16.6450781,55.2339844 16.1667188,55.4939062 15.5064844,55.670625 C15.3667969,55.708125 15.166875,55.7470312 15.0072656,55.7819531 C14.9946094,55.7852344 14.9833594,55.7913281 14.9702344,55.794375 C14.9615625,55.79625 14.9498438,55.7967187 14.9414063,55.7983594 C13.7969531,56.0451562 12.6857813,55.4186719 12.4504688,54.388125 C12.2151563,53.3578125 12.9461719,52.3120312 14.0835938,52.0373437 C14.0920313,52.0352344 14.10375,52.0310156 14.1124219,52.0289062 L14.1288281,52.0249219 C14.2905469,51.9869531 14.4967969,51.9335156 14.6444531,51.9053906 C15.3161719,51.778125 15.8627344,51.8095312 16.49625,51.7567969 C17.8455469,51.6154687 18.9632813,51.500625 19.9563281,51.1877344 C20.2710938,51.0585937 20.5722656,50.6257031 20.7853125,50.3505469 L21.5936719,50.1154687 C20.6878125,43.843125 22.2203906,37.6872656 25.5321094,32.7035156 L24.9133594,32.1508594 C24.8739844,31.9101562 24.8221875,31.3532812 24.5259375,31.0373437 C23.7665625,30.3246094 22.8098438,29.7335156 21.6555469,29.0205469 C21.1075781,28.6982812 20.6053125,28.4903906 20.0552344,28.0844531 C19.9382813,27.9982031 19.7826563,27.8660156 19.6551563,27.7628906 C19.6457813,27.7553906 19.6357031,27.7495312 19.6263281,27.7422656 C18.7005469,27.0039844 18.4877344,25.7299219 19.1521875,24.8964844 C19.5260156,24.4277344 20.0971875,24.1957031 20.6903906,24.2160937 C21.1521094,24.2317969 21.6297656,24.4003125 22.0347656,24.7232812 C22.1664844,24.8275781 22.3460156,24.9644531 22.4636719,25.0654687 C22.9821094,25.5114844 23.2980469,25.951875 23.7339844,26.4142969 C24.6860156,27.3808594 25.4725781,28.1835937 26.33625,28.7650781 C26.79,29.0292187 27.1382813,28.9228125 27.4828125,28.8764062 C27.5936719,28.9584375 27.9665625,29.225625 28.1798438,29.3711719 C31.4648438,25.8857812 35.7799219,23.304375 40.7913281,22.1664844 C41.9402866,21.9061601 43.1061318,21.726968 44.2802344,21.6302344 L44.3257031,20.8136719 C44.5825781,20.565 44.8708594,20.2071094 44.9526563,19.8157031 C45.0365625,18.7778906 44.9003906,17.6613281 44.7379688,16.3141406 C44.6484375,15.6848437 44.4996094,15.1621875 44.4740625,14.4789844 C44.4689063,14.3388281 44.4766406,14.145 44.4782813,13.9842187 C44.4778125,13.9661719 44.4740625,13.9488281 44.4740625,13.9305469 C44.4740625,12.74625 45.3382031,11.7860156 46.4041406,11.7860156 C47.4700781,11.7860156 48.3342188,12.74625 48.3342188,13.9305469 C48.3349219,14.0983594 48.3442969,14.3238281 48.3384375,14.4789844 C48.313125,15.1621875 48.1640625,15.6848437 48.0745313,16.3141406 C47.9121094,17.6613281 47.7719531,18.7778906 47.8558594,19.8157031 C47.9322656,20.3350781 48.2355469,20.5403906 48.4870313,20.780625 C48.4926563,20.9205469 48.5151563,21.3853125 48.5322656,21.6426562 C54.6691406,22.1878125 60.3682031,24.9942187 64.554375,29.3835937 L65.2884375,28.8597656 C65.5373438,28.8745312 66.0853125,28.9497656 66.4596094,28.7320312 C67.3235156,28.1505469 68.1100781,27.3440625 69.0621094,26.3770312 C69.4980469,25.9146094 69.8182031,25.4742187 70.3364063,25.0284375 C70.4547656,24.9267187 70.6335938,24.7905469 70.7653125,24.68625 C71.6910938,23.9477344 72.9792188,24.02625 73.6439063,24.8594531 C74.3085938,25.6926562 74.0955469,26.9664844 73.1695313,27.705 C73.0389844,27.8102344 72.8692969,27.9555469 72.7448438,28.0471875 C72.195,28.4533594 71.6885156,28.66125 71.1405469,28.9835156 C69.98625,29.6964844 69.0290625,30.2875781 68.2701563,31.0003125 C67.9115625,31.38375 67.9385156,31.7467969 67.9073437,32.0932031 C67.8002344,32.1916406 67.4226563,32.5258594 67.2227344,32.7075 C68.9303233,35.2489196 70.1562378,38.0825607 70.839375,41.0671875 C71.53875,44.1117187 71.6477344,47.1546094 71.2436719,50.0782031 L72.0232031,50.3050781 C72.163125,50.5033594 72.4511719,50.9852344 72.8561719,51.1422656 C73.8492188,51.4551562 74.9669531,51.57 76.31625,51.7115625 C76.9497656,51.7640625 77.4963281,51.7326562 78.1680469,51.8599219 C78.3288281,51.8903906 78.5634375,51.9541406 78.7289062,51.991875 C79.8665625,52.2665625 80.596875,53.3123437 80.3620313,54.3426562 Z" id="Shape"></path>
            <path d="M47.9013281,56.6934375 C47.7307461,56.3763883 47.4633885,56.1220866 47.1382031,55.9675781 C46.8907804,55.8470013 46.6175769,55.7889003 46.3425,55.7983594 C45.7369915,55.8207754 45.1889535,56.1631095 44.9032031,56.6974219 L44.8947656,56.6974219 L39.9953906,65.5560938 C43.3860938,66.7115625 47.1307031,66.9698437 50.8872656,66.1169531 C51.550299,65.9669887 52.2054147,65.7839474 52.8501563,65.5685156 L47.9383594,56.6934375 L47.9013281,56.6934375 Z M55.1967187,51.6991406 C55.0677345,51.6743541 54.9363016,51.6646795 54.8050781,51.6703125 C54.5787893,51.6825913 54.3572486,51.7400484 54.1535156,51.8392969 C53.32875,52.2363281 52.9701562,53.2127344 53.3285156,54.0457031 L53.3160937,54.0621094 L57.2175,63.4858594 C60.9782812,61.0900781 63.7928906,57.51 65.2635937,53.3777344 L55.2133594,51.6785156 L55.1969531,51.6991406 L55.1967187,51.6991406 Z" id="Shape"></path>
        </g>
    </g>
</svg>