<svg width="16" height="16" viewBox="0 0 16 16" xmlns="http://www.w3.org/2000/svg"><title>logo-slideshare</title><g fill="#86939E" fill-rule="nonzero"><path d="M15.332 7.587a9.188 9.188 0 0 1-.185.127V1.548c0-.856-.65-1.548-1.45-1.548H2.41C1.61 0 .96.692.96 1.548V7.72a9.807 9.807 0 0 1-.194-.133c-.48-.332-.796.12-.502.552.574.695 1.665 1.56 3.338 2.24-1.77 5.966 4.32 6.914 4.226 3.854l.006-3.008c.16.037.3.073.43.105l.005 2.904c-.094 3.06 6 2.112 4.226-3.855 1.673-.68 2.764-1.545 3.337-2.24.295-.433-.02-.885-.5-.553zm-6.008 1.52c-.745-.037-1.02.28-1.058.768a5.48 5.48 0 0 1-.55-.448c-.03-.03-.06-.055-.09-.08-.163-.17-.433-.26-.852-.24-.998.03-2.825.227-4.953-.877V2.248c0-1.084.28-1.424 1.282-1.424h9.988c.95 0 1.285.404 1.285 1.424V8.18c-2.17 1.16-4.038.958-5.05.927z"/><path d="M10.415 4.783c-1.07 0-1.94.804-1.94 1.796 0 .99.87 1.795 1.94 1.795 1.07 0 1.94-.804 1.94-1.796 0-.993-.87-1.797-1.94-1.797z"/><ellipse cx="5.901" cy="6.579" rx="1.939" ry="1.796"/></g></svg>