<svg width="130" height="130" viewBox="0 0 130 130" xmlns="http://www.w3.org/2000/svg"><title>logo-docker</title><path d="M45.546 48.216H35.438v-9.19h10.108v9.19zm11.946 1.838H47.384v9.19h10.108v-9.19zm-11.946 0H35.438v9.19h10.108v-9.19zm11.946-11.027H47.384v9.19h10.108v-9.19zM69.438 28H59.33v9.19h10.108V28zm11.946 22.054H71.276v9.19h10.108v-9.19zm-11.946 0H59.33v9.19h10.108v-9.19zm0-11.027H59.33v9.19h10.108v-9.19zM33.6 50.054H23.492v9.19H33.6v-9.19zM48.303 96C72.4 96 90.165 84.87 98.537 64.757c3.267.102 10.312 0 13.988-6.943l.92-1.838.305-.715-2.042-1.326c-2.246-1.43-7.25-2.042-11.23-1.327-.512-3.676-2.554-6.84-6.332-9.7l-1.94-1.532-1.43 2.145c-1.837 2.756-2.756 6.534-2.45 10.21.103 1.327.51 3.573 1.84 5.615-1.33.715-3.983 1.736-7.455 1.634H16.346l-.102.816c-.613 3.675-.613 15.213 6.84 23.994C28.7 92.63 37.276 96 48.303 96z" fill="#7F7F7F" fill-rule="evenodd"/></svg>