<svg width="130" height="130" viewBox="0 0 130 130" xmlns="http://www.w3.org/2000/svg"><title>logo-openshift</title><g fill="#7F7F7F" fill-rule="evenodd"><path d="M107.196 45.403a39.695 39.695 0 0 0-3.41-5.787l-13.98 5.087a26.13 26.13 0 0 1 4.11 5.534l13.28-4.834zm-61.792 15.46L31.42 65.952c.18 2.244.567 4.46 1.11 6.63l13.283-4.837a25.994 25.994 0 0 1-.41-6.88z"/><path d="M83.99 46.82l13.978-5.086a39.744 39.744 0 0 0-15.61-12.99c-19.984-9.318-43.826-.642-53.143 19.34a39.694 39.694 0 0 0-3.61 19.986l13.98-5.087c.232-3.03.97-6.066 2.326-8.976 6.056-12.983 21.543-18.617 34.526-12.564 2.91 1.357 5.428 3.208 7.553 5.378zM89 75.965C82.945 88.95 67.456 94.585 54.475 88.53a25.72 25.72 0 0 1-7.568-5.37l-13.95 5.077a39.65 39.65 0 0 0 15.597 12.994c19.985 9.318 43.823.64 53.142-19.344a39.58 39.58 0 0 0 3.6-19.974l-13.95 5.077a25.64 25.64 0 0 1-2.348 8.975z"/><path d="M95.784 49.92L82.5 54.756a26.062 26.062 0 0 1 3.252 14.63l13.95-5.075a40.28 40.28 0 0 0-3.918-14.39M34.4 72.26l-13.283 4.838a40.44 40.44 0 0 0 6.247 13.54l13.95-5.078a26.11 26.11 0 0 1-6.914-13.3M105.172 41.72c-.44-.715-.898-1.42-1.385-2.104l-13.98 5.087c.616.63 1.182 1.298 1.722 1.983l13.642-4.966zm-59.82 21.95a24.74 24.74 0 0 1 .052-2.805L31.42 65.952c.073.896.186 1.785.32 2.672l13.61-4.953z"/><path d="M91.345 66.988a25.524 25.524 0 0 1-1.178 6l15.185-5.536c.108-1.855.09-3.706-.056-5.54l-13.95 5.076zm-58.387 21.25a39.607 39.607 0 0 0 3.555 4.318L51.7 87.018a25.81 25.81 0 0 1-4.793-3.857l-13.95 5.08z"/></g></svg>