<?xml version="1.0" encoding="UTF-8"?>
<svg width="130px" height="130px" viewBox="0 0 130 130" version="1.1" xmlns="http://www.w3.org/2000/svg" xmlns:xlink="http://www.w3.org/1999/xlink">
    <!-- Generator: Sketch 51.2 (57519) - http://www.bohemiancoding.com/sketch -->
    <title>logo-ansible</title>
    <desc>Created with Sketch.</desc>
    <defs></defs>
    <g id="ansible" stroke="none" stroke-width="1" fill="none" fill-rule="evenodd">
        <g id="logo" transform="translate(22.000000, 23.500000)">
            <path d="M79.7288871,39.8644436 C79.7288871,61.8816758 61.8819896,79.7284161 39.8644436,79.7284161 C17.848781,79.7284161 0,61.8816758 0,39.8644436 C0,17.848781 17.848781,0 39.8644436,0 C61.8819896,0 79.7288871,17.848781 79.7288871,39.8644436" id="Shape" fill="#7F7F7F"></path>
            <path d="M40.9425808,24.5456544 L51.2587048,50.0069835 L35.6763758,37.73267 L40.9425808,24.5456544 Z M59.2689805,55.8722913 L43.4006767,17.6841434 C42.9477005,16.5827795 42.0419042,16 40.9425808,16 C39.841217,16 38.8694992,16.5827795 38.4165227,17.6841434 L21,59.5717563 L26.9579123,59.5717563 L33.8523842,42.30136 L54.4270289,58.9232122 C55.2545036,59.5923178 55.8515664,59.8949297 56.6277164,59.8949297 C58.1820567,59.8949297 59.5406723,58.7296847 59.5406723,57.0477388 C59.5406723,56.7740066 59.443987,56.339551 59.2689805,55.8722913 Z" id="Shape" fill="#FFFFFF" fill-rule="nonzero"></path>
        </g>
    </g>
</svg>