<svg width="16" height="16" viewBox="0 0 16 16" xmlns="http://www.w3.org/2000/svg"><title>logo-linkedin</title><g fill="#86939E" fill-rule="nonzero"><path d="M8.87 7.495v-.332c-.068.11-.162.223-.22.332h.22z"/><path d="M0 0v16h16V0H0zm4.977 13.292H2.603v-7.14h2.374v7.14zM3.79 5.176h-.016c-.796 0-1.312-.55-1.312-1.235 0-.7.53-1.232 1.343-1.232s1.312.533 1.328 1.233c0 .687-.515 1.236-1.343 1.236zm9.748 8.116h-2.374v-3.82c0-.96-.343-1.615-1.202-1.615-.657 0-1.047.44-1.22.868-.06.153-.077.365-.077.58v3.987H6.29s.032-6.47 0-7.14h2.375v1.01c.315-.485.878-1.18 2.14-1.18 1.562 0 2.733 1.02 2.733 3.215v4.095z"/></g></svg>