<svg width="130" height="130" viewBox="0 0 130 130" xmlns="http://www.w3.org/2000/svg"><title>logo-kubernetes</title><g fill="#7F7F7F" fill-rule="evenodd"><path d="M58.558 73.035a1.702 1.702 0 0 0-1.967-1.295l-.015-.02-9.964 1.69a19.986 19.986 0 0 0 8.022 10.04l3.86-9.33-.03-.037c.14-.32.18-.682.096-1.048zm-3.31-7.18a1.702 1.702 0 0 0 .667-2.924l.008-.04-7.58-6.78a19.88 19.88 0 0 0-2.82 12.583l9.715-2.805.01-.033zm13.158-8.986a1.703 1.703 0 0 0 2.706 1.3l.03.01 8.247-5.848a20.05 20.05 0 0 0-11.565-5.576l.573 10.11.008.003zm-5.798 11.963l2.796 1.344 2.788-1.34.693-3.01-1.93-2.413H63.85l-1.935 2.408.693 3.01zm-2.936-10.628a1.7 1.7 0 0 0 2.7-1.303l.042-.02.573-10.124c-.69.083-1.378.202-2.057.355a19.885 19.885 0 0 0-9.577 5.218l8.302 5.885.017-.008zm22.74-2.09l-7.54 6.746.005.022a1.703 1.703 0 0 0 .668 2.924l.01.04 9.764 2.814c.206-2.107.08-4.287-.42-6.47a20.13 20.13 0 0 0-2.488-6.076z"/><path d="M111.63 74.764l-7.968-34.61a6.126 6.126 0 0 0-3.337-4.15l-32.25-15.398a6.21 6.21 0 0 0-5.354 0L30.476 36.014a6.125 6.125 0 0 0-3.336 4.15L19.183 74.77a6.074 6.074 0 0 0 .836 4.69c.11.167.226.33.35.486l22.32 27.75A6.185 6.185 0 0 0 47.513 110l35.793-.008c1.876 0 3.65-.844 4.82-2.297l22.312-27.755a6.078 6.078 0 0 0 1.192-5.176zm-12.268-.42c-.235 1.03-1.346 1.656-2.49 1.41-.01-.003-.02-.003-.03-.005-.013-.004-.024-.01-.037-.013-.16-.035-.36-.07-.5-.108-.66-.177-1.137-.44-1.73-.67-1.278-.457-2.336-.84-3.366-.99-.525-.04-.79.21-1.082.4-.14-.027-.575-.104-.825-.143-1.85 5.812-5.787 10.845-11.127 13.997.093.223.25.696.322.78-.122.326-.305.637-.148 1.138.374.972.98 1.92 1.71 3.064.355.528.717.934 1.036 1.54.077.143.178.365.252.518.496 1.06.132 2.284-.82 2.743-.96.462-2.155-.026-2.67-1.093-.073-.15-.176-.352-.238-.495-.274-.628-.37-1.164-.56-1.77-.44-1.284-.8-2.347-1.325-3.246-.294-.435-.655-.49-.986-.598-.062-.105-.29-.524-.413-.742a24.937 24.937 0 0 1-17.812-.045l-.437.79c-.326.087-.64.176-.832.405-.703.84-.984 2.185-1.494 3.468-.192.606-.283 1.142-.557 1.77-.062.14-.166.34-.24.49 0 0 .002.003 0 .004l-.003.004c-.515 1.065-1.705 1.55-2.664 1.09-.953-.46-1.317-1.68-.82-2.743.073-.153.17-.375.246-.52.32-.604.682-1.014 1.035-1.542.73-1.143 1.372-2.168 1.746-3.14.094-.323-.045-.765-.17-1.09l.35-.843c-5.138-3.044-9.195-7.895-11.13-13.898l-.843.145c-.225-.128-.68-.427-1.11-.393-1.03.15-2.087.532-3.364.99-.595.227-1.073.487-1.734.664-.14.038-.34.077-.5.112-.01.003-.023.01-.036.012l-.03.004c-1.143.247-2.254-.38-2.49-1.41-.235-1.03.496-2.076 1.634-2.35l.028-.01.017-.003c.16-.038.367-.09.514-.12.672-.127 1.22-.095 1.852-.148 1.35-.142 2.467-.256 3.46-.57.315-.128.616-.56.83-.836l.808-.235c-.906-6.272.626-12.428 3.938-17.41l-.62-.554c-.038-.24-.09-.797-.386-1.113-.76-.712-1.716-1.303-2.87-2.016-.548-.322-1.05-.53-1.6-.936-.118-.086-.273-.218-.4-.32-.01-.01-.02-.014-.03-.022-.925-.738-1.138-2.012-.474-2.846.374-.468.945-.7 1.538-.68.462.016.94.184 1.345.507.13.105.31.24.43.342.517.446.833.887 1.27 1.35.95.966 1.738 1.77 2.6 2.35.455.264.803.158 1.148.11.11.083.484.35.697.496a24.828 24.828 0 0 1 12.61-7.204c1.15-.26 2.316-.44 3.49-.536l.046-.816c.257-.25.545-.607.627-.998.084-1.038-.053-2.155-.215-3.502-.09-.63-.238-1.152-.264-1.835-.005-.14.003-.335.004-.496 0-.018-.004-.035-.004-.053 0-1.184.864-2.144 1.93-2.144 1.066 0 1.93.96 1.93 2.145 0 .168.01.394.004.55-.025.682-.174 1.205-.263 1.834-.163 1.347-.303 2.464-.22 3.502.077.52.38.724.632.965.006.14.028.605.045.863 6.137.545 11.836 3.35 16.022 7.74l.734-.523c.25.015.797.09 1.172-.128.864-.58 1.65-1.388 2.602-2.355.436-.462.756-.903 1.274-1.35.12-.1.298-.236.43-.34.925-.74 2.213-.66 2.878.172.665.833.452 2.106-.474 2.845-.13.105-.3.25-.425.342-.55.406-1.056.614-1.604.937-1.154.712-2.11 1.304-2.87 2.016-.358.384-.33.747-.363 1.093-.107.1-.484.433-.684.614a24.985 24.985 0 0 1 3.616 8.36c.7 3.045.808 6.088.404 9.01l.78.228c.14.198.427.68.832.837.993.313 2.11.428 3.46.57.634.052 1.18.02 1.852.148.16.03.395.094.56.132 1.14.275 1.87 1.32 1.634 2.35z"/><path d="M66.9 76.693a1.69 1.69 0 0 0-.762-.725c-.247-.12-.52-.18-.796-.17a1.704 1.704 0 0 0-1.44.9h-.007l-4.9 8.858a19.958 19.958 0 0 0 10.892.56c.663-.15 1.318-.332 1.963-.547l-4.912-8.877H66.9zm7.297-4.994a1.69 1.69 0 0 0-.392-.03c-.226.013-.448.07-.65.17a1.703 1.703 0 0 0-.826 2.206l-.014.016 3.902 9.424a19.903 19.903 0 0 0 8.046-10.108l-10.05-1.7-.017.02z"/></g></svg>