<?xml version="1.0" encoding="UTF-8"?>
<svg width="130px" height="130px" viewBox="0 0 130 130" version="1.1" xmlns="http://www.w3.org/2000/svg" xmlns:xlink="http://www.w3.org/1999/xlink">
    <!-- Generator: Sketch 51.2 (57519) - http://www.bohemiancoding.com/sketch -->
    <title>openshift</title>
    <desc>Created with Sketch.</desc>
    <defs></defs>
    <g id="openshift" stroke="none" stroke-width="1" fill="none" fill-rule="evenodd" opacity="0.5">
        <g id="logo" transform="translate(21.000000, 25.000000)" fill="#000000" fill-rule="nonzero">
            <path d="M78.7167398,39.2922884 C78.3109512,34.3106031 76.9877359,29.4468542 74.8137931,24.9462069 L87.2155486,20.4376176 C86.3320376,18.6126646 85.29279,16.805768 84.1341693,15.1260188 C84.0183072,14.9519749 83.8878997,14.7781818 83.7720376,14.6043887 L77.9641379,16.7189969 C74.0970533,11.2875235 68.8250784,6.75435737 62.3799373,3.74169279 C42.4215674,-5.57115987 18.6106583,3.10445141 9.3123511,23.0628213 C6.29968652,29.5225078 5.18445141,36.3731661 5.7060815,43.0209404 L11.5137304,40.9063323 C11.5282759,41.1383072 11.557116,41.3552351 11.5716614,41.58721 C11.7745455,43.6005016 12.1366771,45.5847022 12.6144201,47.5255172 L0.216677116,52.0443887 C1.44041035,56.9016176 3.55718287,61.4887659 6.45893417,65.5716614 L13.0490282,63.1676489 C13.0781191,63.196489 13.0924138,63.2401254 13.1215047,63.2689655 L14.2801254,64.8042633 C14.3092163,64.8333542 14.323511,64.8621944 14.3526019,64.8912853 C18.0604389,69.5548589 22.8689655,73.4655799 28.6332288,76.144953 C48.5915987,85.4432602 72.4025078,76.7819436 81.700815,56.8238245 C84.7277743,50.3932288 85.8432602,43.5423197 85.3073354,36.8945455 L78.7167398,39.2922884 Z M61.5398119,29.754232 C64.0020063,34.1715361 65.1751724,39.2554232 64.7842006,44.3678997 L71.3735423,41.9704075 C71.3589969,42.2003762 71.3306583,42.4438871 71.3163636,42.6733542 C71.3163636,42.7024451 71.3018182,42.7460815 71.3018182,42.7749216 C71.2727273,42.9921003 71.2584326,43.209279 71.2293417,43.4267085 C71.2293417,43.4555486 71.2293417,43.470094 71.2147962,43.4989342 C71.0099867,45.0130543 70.6707579,46.5059298 70.2011285,47.9598746 C69.8781219,48.9751862 69.4861545,49.9672539 69.0279624,50.9291536 C62.9883386,63.8919122 47.5197492,69.5260188 34.5569906,63.4718495 C33.5998939,63.0275624 32.6712211,62.5244474 31.7763009,61.9653918 C30.4620983,61.1488647 29.2257924,60.2131774 28.0830094,59.1701567 L26.982069,58.1128527 L20.3922257,60.5028213 C16.8147962,56.8383699 14.439373,52.1893417 13.4836364,47.2213166 L25.8813793,42.7021944 C25.18721,39.1862069 25.4756113,35.8247022 25.4756113,35.8229467 L19.6679624,37.9373041 C19.8996865,34.9103448 20.6384953,31.8833856 21.9852038,28.9720376 C28.039373,16.009279 43.4934169,10.3751724 56.4704702,16.4293417 C59.382069,17.7908464 61.8873981,19.630094 64.0165517,21.8026332 L69.8244514,19.6880251 C69.9836991,19.8475235 70.1429467,20.0213166 70.2878997,20.1805643 C70.7227779,20.6560119 71.138329,21.1487834 71.5335423,21.6576803 L71.5480878,21.6576803 C72.4280878,22.768652 73.2609404,24.0195611 73.9405643,25.2461442 L61.5398119,29.754232 Z" id="Shape"></path>
        </g>
    </g>
</svg>