<?xml version="1.0" encoding="UTF-8"?>
<svg width="87px" height="80px" viewBox="0 0 87 80" version="1.1" xmlns="http://www.w3.org/2000/svg" xmlns:xlink="http://www.w3.org/1999/xlink">
    <!-- Generator: Sketch 51.1 (57501) - http://www.bohemiancoding.com/sketch -->
    <title>logo</title>
    <desc>Created with Sketch.</desc>
    <defs></defs>
    <g id="Symbols" stroke="none" stroke-width="1" fill="none" fill-rule="evenodd" opacity="0.5">
        <g id="Technologies" transform="translate(-485.000000, -688.000000)" fill="#000000" fill-rule="nonzero">
            <g id="technologies" transform="translate(484.000000, 371.000000)">
                <g id="openshift" transform="translate(0.000000, 317.000000)">
                    <g id="logo" transform="translate(1.000000, 0.000000)">
                        <path d="M86.1962894,20.4027489 C85.2218213,18.389983 84.0941617,16.4474291 82.7856511,14.6155142 L68.8069277,19.7027489 C70.4324596,21.3665787 71.798417,23.2367915 72.9154383,25.2367915 L86.1962894,20.4027489 Z M24.4041702,35.8638213 L10.4211915,40.9510553 C10.5999149,43.1936085 10.9871489,45.4085021 11.5297021,47.5787149 L24.8126809,42.7425447 C24.380766,40.4957362 24.2275745,38.1808426 24.4041702,35.8638213 Z" id="Path"></path>
                        <path d="M62.9892766,21.8214723 L76.968,16.7342376 C73.0956596,11.3001951 67.8211915,6.75976953 61.3594894,3.74487591 C41.374383,-5.57427302 17.5318298,3.10232272 8.21480851,23.0853021 C5.19778723,29.5512596 4.07651064,36.4193447 4.60417021,43.0704085 L18.5850213,37.9831745 C18.8169362,34.9533872 19.555234,31.917217 20.9105532,29.0065787 C26.9658723,16.0235993 42.4531064,10.3895568 55.4360851,16.4427483 C58.3445957,17.8001957 60.8637447,19.6512596 62.9892766,21.8214723 Z" id="Path"></path>
                        <path d="M67.9992681,50.9650979 C61.9460766,63.9502043 46.4567149,69.5842468 33.4758638,63.5310553 C30.5630979,62.1714809 28.0248,60.3353106 25.9077787,58.1608426 L11.9567149,63.2374383 C15.8205447,68.6714809 21.0886298,73.214034 27.5545872,76.2310553 C47.5396936,85.5480766 71.3779915,76.8714809 80.6971404,56.8863745 C83.7162894,50.4246723 84.8290553,43.5565872 84.2971404,36.9119064 L70.3460766,41.9885021 C70.1226723,45.0161617 69.3588426,48.0523319 67.9992681,50.9650979 Z" id="Path"></path>
                        <path d="M74.7837447,24.9210468 L61.500766,29.7550894 C63.9688511,34.176366 65.1348085,39.2657277 64.7518298,44.3848766 L78.7028936,39.3104085 C78.3028936,34.3040255 76.9688511,29.4167915 74.7837447,24.9210468 M13.4003404,47.2597702 L0.117361702,52.0980681 C1.33651064,56.9406213 3.45353191,61.5427489 6.36417021,65.6384936 L20.3131064,60.5597702 C16.7322553,56.8831745 14.3514043,52.229983 13.4003404,47.2597702" id="Path"></path>
                        <path d="M84.1716085,16.7199908 C83.731183,16.0050972 83.2737362,15.3008419 82.7865021,14.6157355 L68.8077787,19.7029702 C69.4226723,20.3327574 69.9886298,21.0008426 70.5290553,21.6859489 L84.1716085,16.7199908 Z M24.3507574,38.6712596 C24.3167149,37.7393447 24.3315234,36.8031745 24.4038638,35.8648766 L10.4208851,40.9521106 C10.4932255,41.8478553 10.6059915,42.737217 10.740034,43.6244511 L24.3506723,38.6712596 L24.3507574,38.6712596 Z" id="Path"></path>
                        <path d="M70.3452255,41.9882809 C70.1983319,43.9967915 69.8069277,46.0095574 69.1665021,47.9882809 L84.3516085,42.4521106 C84.4602043,40.5967915 84.4430128,38.7457277 84.2962894,36.9116851 L70.3452255,41.9882809 Z M11.9579915,63.2393447 C13.0324596,64.7521106 14.2218213,66.1946638 15.5133106,67.556366 L30.7005447,62.0180681 C28.9260766,60.9074298 27.3218213,59.6116851 25.9069277,58.1606213 L11.9579915,63.2393447 Z" id="Path"></path>
                    </g>
                </g>
            </g>
        </g>
    </g>
</svg>