<svg width="169" height="48" viewBox="0 0 169 48" xmlns="http://www.w3.org/2000/svg"><title>redhat-logo</title><g fill="#000" fill-rule="nonzero" opacity=".5"><path d="M168.736 39.547c0 .607-.53 1.063-1.145 1.063-.572 0-1.144-.456-1.144-1.063 0-.59.572-1.103 1.145-1.103.617 0 1.146.512 1.146 1.103zm.264 0c0-.755-.617-1.35-1.41-1.35-.748 0-1.364.595-1.364 1.35 0 .737.616 1.323 1.365 1.323.793 0 1.41-.586 1.41-1.323zm-1.41-.087c.22 0 .353 0 .353-.217 0-.208-.132-.208-.308-.208h-.264v.425h.22zm-.22.13v.65h-.22v-1.41h.53c.307 0 .483.126.483.413 0 .26-.176.347-.352.347l.397.65h-.22l-.396-.65h-.22zm-9.468-20.626v3.366h-3.083v1.47h3.082V35.34c0 1.88.308 3.454 1.145 4.382.75.846 1.85 1.28 3.17 1.28 1.19 0 1.983-.174 2.6-.434l-.22-1.367c-.485.173-1.146.303-2.115.303-1.982 0-2.73-1.427-2.73-3.796V23.8h5.24v-1.47h-5.24v-4.035l-1.85.67zm-7.266 15.8c0 .327-.09.74-.22 1.103-.617 1.8-2.423 3.68-5.506 3.68-1.937 0-3.7-1.146-3.7-3.84 0-4.365 5.33-4.972 9.426-4.855v3.913zm1.76 1.515v-7.13c0-3.275-.968-7.24-6.385-7.24-1.672 0-3.742.45-5.37 1.583l.57 1.315c1.322-.93 2.996-1.363 4.58-1.363 4.405-.043 4.846 3.584 4.846 5.394v.49c-7.62-.08-11.363 2.45-11.363 6.663 0 2.49 1.718 5.007 5.46 5.007 2.952 0 5.022-1.584 5.903-2.963h.088l.264 2.573h1.717c-.22-1.367-.308-2.86-.308-4.33zm-16.47-6.687V40.61h-1.805V29.797c0-3.3-1.276-6.304-5.108-6.304-2.642 0-4.8 1.87-5.593 4.144-.22.542-.31 1.063-.31 1.81V40.61h-1.805V16.508l1.806.538v8.556h.133c.484-1.015 1.365-2 2.466-2.638 1.1-.647 2.333-1.054 3.743-1.054 1.805 0 6.473.867 6.473 7.683zm-18.85 5.91c0 1.878.045 3.87.134 5.107h-4.184l-.22-2.86h-.044c-1.145 2.057-3.347 3.25-6.034 3.25-4.448 0-7.927-3.7-7.927-9.285-.043-6.144 3.832-9.784 8.28-9.784 2.555 0 4.36 1.034 5.197 2.383h.132V14l4.667 1.302v20.2zm-4.667-5.54c0-.37-.045-.83-.133-1.207-.44-1.78-1.938-3.245-4.05-3.245-2.996 0-4.714 2.626-4.714 6.036 0 3.34 1.718 5.796 4.668 5.796 1.895 0 3.613-1.31 4.053-3.314.132-.404.176-.812.176-1.32v-2.746zm-28.186-.448c.22-1.878 1.41-4.456 4.316-4.456 3.17 0 3.92 2.76 3.92 4.455h-8.236zm0 3.194l12.463.042a9.87 9.87 0 0 0 .176-1.952c0-4-1.98-8.89-8.015-8.89-5.99 0-9.072 4.772-9.072 9.814 0 5.575 3.523 9.233 9.557 9.233 2.73 0 4.888-.5 6.473-1.15l-.704-3.163c-1.41.49-2.95.82-5.11.82-2.95 0-5.592-1.432-5.768-4.747v-.008zm-16.074 7.9h4.712v-9.455c0-.5 0-.99.132-1.392.44-2.096 1.938-3.493 4.184-3.493.572 0 .97.043 1.41.126V22.04c-.353-.1-.618-.1-1.102-.1-1.982 0-4.14 1.315-5.065 3.887h-.175l-.176-3.475H68.06c.088 1.63.132 3.432.132 5.88L68.15 40.61zm-12.64-1.063c0 .607-.528 1.063-1.145 1.063-.616 0-1.1-.456-1.1-1.063a1.08 1.08 0 0 1 1.1-1.103c.617 0 1.145.47 1.145 1.103zm.22 0c0-.755-.616-1.35-1.365-1.35-.748 0-1.365.595-1.365 1.35 0 .737.617 1.323 1.365 1.323.75 0 1.365-.586 1.365-1.323zm-1.365-.087c.176 0 .353-.044.353-.217 0-.208-.177-.208-.31-.208h-.307v.425h.265zm-.264.13v.65h-.22v-1.41h.573c.31 0 .44.126.44.413 0 .26-.087.347-.308.347l.353.65h-.22l-.353-.65H54.1zM27.018 0C12.1 0 0 12.16 0 27.16c0 3.037.496 5.95 1.41 8.66h1.88c1.667 0 3.213-.374 4.513-1.08.33-.168.698-.248 1.093-.248.83 0 1.54.287 1.998 1.037.386.706.75 1.08 1.2 1.372.38.248.912.46 1.663.415.356-.044.896-.084 1.027-.46.154-.414-.044-.785-.553-.996-.728-.29-.925-.745-1.32-1.425-.383-.654-1.226-1.068-1.357-2.353-.128-1.285.873-2.9 2.845-2.384 1.43.37 2.35 2.146 2.7 2.764.18.31.817.684 1.335.203.518-.477.993-.477 1.38.14.333.495 2.765 3.766 5.395 3.846 2.675.085 4.093-.578 5.265-.578.817.045 1.212.455 1.678.54.817.123 1.4-.623 2.293-.584.715.044 1.558.543 2.35.543.833 0 2.546-1 2.502-.58-.044.705-.57 1.994-.703 2.576-.088.415 0 1.39-.307 2.18-.176.818-.922 1.833-1.142 2.098-.66 1.015-1.142 1.324-1.668 2.384-.59 1.147-1.58 2.25-1.823 2.604-.342.44 1.866-.044 2.657-.795.614-.618 1.8-2.516 3.643-2.913 1.225-.265 1.49-.75 1.357-1.192-.044-.044-.044-.088-.044-.176 0-.177.088-.31.264-.354 1.23-.573 2.986-.882 4.918-.882 1.053 0 2.327.176 3.25.353C52.417 37.693 54 32.598 54 27.16 54 12.16 41.925 0 27.018 0zm4.057 5.6c1.857-.07 3.64.464 4.75 1.616 1.538 1.594 3.69 6.507 4.695 10.184.483 1.867.395 2.76.088 3.39-.172.433-.26.707-.918 1.8-.132.19-.044.403.263.275 1.006-.543 1.84-1.254 2.323-2.927 4.567 1.038 7.245 3.443 6.674 6.688-1.273 7.12-12.905 9.526-24.21 6.11C13.96 29.455 4.49 22.913 5.59 19.08c.636-2.225 4.154-3.178 8.843-2.666-.71 1.452-.66 3.17 2.446 5.076 3.788 2.168 10.2 4.017 11.933 3.836.65-.07 1.226-.388.65-.78-.584-.39-1.097-1.17-1.427-2.535-.175-.764-.386-1.823-4.457-2.6-8.743-1.673-8.41-4.158-8.146-5.588 0 0 .773-3.51 1.094-4.746.324-1.237 1.16-4.07 6.792-2.795 3.254.737 5.006-.18 5.902-.41a8.623 8.623 0 0 1 1.853-.274zm.663 1.263c-.338 0-.676 0-1.058.05-1.032.105-1.924.378-2.538.683-.1.05-.093.19.044.155.096 0 .368-.044.548-.07 1.678-.168 3.087.11 3.158.627.048.384-.677.8-1.757 1.046-.053 0-.092.062-.092.12 0 .052.044.114.092.114.448.128.98.225 1.537.225 1.717.044 3.118-.59 3.157-1.404.043-.812-1.336-1.514-3.083-1.545h-.01zm1.163 32.51c-.042 0-.042 0-.07.045-.333.415-.482.54-.736.755-.61.486-1.305-.088-1.752-.34-.993-.56-1.792-.207-1.985.252-.198.397.044 1.015.562.927.754-.132.79.044 1.334.353 1.023.64 1.76.287 2.142-.044.317-.22.505-.44.642-.75.31-.57.07-1.028-.07-1.152 0-.044-.045-.044-.067-.044z"/></g></svg>