<?xml version="1.0" standalone="no"?>
<!DOCTYPE svg PUBLIC "-//W3C//DTD SVG 20010904//EN"
 "http://www.w3.org/TR/2001/REC-SVG-20010904/DTD/svg10.dtd">
<svg version="1.0" xmlns="http://www.w3.org/2000/svg"
 width="340.000000pt" height="340.000000pt" viewBox="0 0 340.000000 340.000000"
 preserveAspectRatio="xMidYMid meet">
<metadata>
Created by potrace 1.11, written by Peter Selinger 2001-2013
</metadata>
<g transform="translate(0.000000,340.000000) scale(0.100000,-0.100000)"
fill="#000000" stroke="none">
<path d="M192 3378 c-65 -26 -130 -87 -162 -153 l-25 -50 -2 -1465 c-2 -1445
-2 -1466 18 -1517 25 -64 93 -137 157 -166 l47 -22 1475 0 1475 0 46 21 c59
28 119 87 149 149 l25 50 0 1475 0 1475 -25 50 c-32 66 -99 130 -163 154 -51
20 -80 20 -1507 20 -1453 0 -1455 0 -1508 -21z"/>
</g>
</svg>
