<?xml version="1.0" encoding="UTF-8"?>
<svg width="16px" height="16px" viewBox="0 0 16 16" version="1.1" xmlns="http://www.w3.org/2000/svg" xmlns:xlink="http://www.w3.org/1999/xlink">
    <!-- Generator: Sketch 51.2 (57519) - http://www.bohemiancoding.com/sketch -->
    <title>slideshare-logo</title>
    <desc>Created with Sketch.</desc>
    <defs></defs>
    <g id="Symbols" stroke="none" stroke-width="1" fill="none" fill-rule="evenodd">
        <g id="Header" transform="translate(-1294.000000, -41.000000)" fill="#86939E" fill-rule="nonzero">
            <g id="social" transform="translate(1205.000000, 41.000000)">
                <g id="slideshare-logo" transform="translate(89.000000, 0.000000)">
                    <path d="M15.3321237,7.58677551 C15.2701031,7.63069388 15.2082474,7.67232653 15.1465567,7.71379592 L15.1465567,1.5477551 C15.1465567,0.691755102 14.4961649,0 13.6956701,0 L2.4102268,0 C1.60989691,0 0.959505155,0.691755102 0.959505155,1.5477551 L0.959505155,7.7195102 C0.895175258,7.6762449 0.830515464,7.63265306 0.765690722,7.58677551 C0.284865979,7.25469388 -0.0303505155,7.70677551 0.264412371,8.13877551 C0.838268041,8.83461224 1.92923711,9.69877551 3.60197938,10.3786122 C1.83224742,16.3459592 7.92164948,17.2937143 7.82845361,14.2341224 C7.82845361,14.2909388 7.83191753,12.4974694 7.83439175,11.2256327 C7.99439175,11.2628571 8.13294845,11.2992653 8.26342268,11.331102 C8.26606186,12.5941224 8.26903093,14.2893061 8.26903093,14.2341224 C8.176,17.2937143 14.2695258,16.3459592 12.4956701,10.3786122 C14.1685773,9.69877551 15.2597113,8.83461224 15.8330722,8.13877551 C16.1281649,7.70693878 15.8131134,7.25485714 15.3321237,7.58677551 Z M9.32387629,9.10677551 C8.57896907,9.06955102 8.30301031,9.38661224 8.2662268,9.87526531 C8.08692784,9.74922449 7.90383505,9.59918367 7.71595876,9.42661224 C7.68478351,9.39755102 7.65492784,9.37208163 7.6262268,9.3482449 C7.46292784,9.17779592 7.19323711,9.08620408 6.77443299,9.10677551 C5.776,9.13746939 3.94870103,9.33355102 1.82053608,8.22987755 L1.82053608,2.2475102 C1.82053608,1.1637551 2.09946392,0.823836735 3.10169072,0.823836735 L13.0899794,0.823836735 C14.0395876,0.823836735 14.3747629,1.2277551 14.3747629,2.2475102 L14.3747629,8.17991837 C12.204866,9.34073469 10.3369897,9.13828571 9.32387629,9.10677551 Z" id="Shape"></path>
                    <path d="M10.4150103,4.78334694 C9.34416495,4.78334694 8.47505155,5.58710204 8.47505155,6.57910204 C8.47505155,7.57110204 9.34416495,8.37485714 10.4150103,8.37485714 C11.4856907,8.37485714 12.3544742,7.57110204 12.3544742,6.57910204 C12.3544742,5.58710204 11.4856907,4.78334694 10.4150103,4.78334694 Z" id="Shape"></path>
                    <ellipse id="Oval" cx="5.90119588" cy="6.57910204" rx="1.93929897" ry="1.7957551"></ellipse>
                </g>
            </g>
        </g>
    </g>
</svg>