<?xml version="1.0" encoding="UTF-8"?>
<svg width="18px" height="15px" viewBox="0 0 18 15" version="1.1" xmlns="http://www.w3.org/2000/svg" xmlns:xlink="http://www.w3.org/1999/xlink">
    <!-- Generator: Sketch 51.2 (57519) - http://www.bohemiancoding.com/sketch -->
    <title>twitter-logo</title>
    <desc>Created with Sketch.</desc>
    <defs></defs>
    <g id="Symbols" stroke="none" stroke-width="1" fill="none" fill-rule="evenodd">
        <g id="Header" transform="translate(-1336.000000, -42.000000)" fill="#86939E" fill-rule="nonzero">
            <g id="social" transform="translate(1205.000000, 41.000000)">
                <path d="M149,2.77473603 C148.337499,3.07590134 147.626645,3.28014821 146.879761,3.37133362 C147.64238,2.90282407 148.226146,2.1597022 148.502823,1.2769357 C147.787469,1.71080566 146.99785,2.02585095 146.156495,2.19663501 C145.482759,1.45927635 144.524434,1 143.461491,1 C141.422252,1 139.768808,2.69628399 139.768808,4.78721192 C139.768808,5.08376063 139.801426,5.37339953 139.864426,5.65036541 C136.796009,5.49225437 134.075152,3.98407424 132.25412,1.69233926 C131.935796,2.25085744 131.754707,2.90164729 131.754707,3.59634011 C131.754707,4.91068336 132.407091,6.07038556 133.396916,6.74887502 C132.791768,6.7281154 132.22262,6.55733134 131.724354,6.27345565 L131.724354,6.32076827 C131.724354,8.15552011 132.997621,9.68678325 134.685918,10.0352913 C134.376594,10.1206834 134.050417,10.167996 133.712975,10.167996 C133.474533,10.167996 133.243945,10.1437664 133.017856,10.0976004 C133.488004,11.6034873 134.851271,12.6985571 136.46648,12.7285801 C135.20333,13.7440512 133.610622,14.3475586 131.880707,14.3475586 C131.582648,14.3475586 131.289059,14.3290922 131,14.2956294 C132.634326,15.372263 134.574594,16 136.65995,16 C143.45255,16 147.165497,10.2280118 147.165497,5.22225865 L147.153115,4.73184288 C147.878586,4.20099413 148.506205,3.53403109 149,2.77473603 Z" id="twitter-logo"></path>
            </g>
        </g>
    </g>
</svg>