<?xml version="1.0" encoding="UTF-8"?>
<svg width="16px" height="16px" viewBox="0 0 16 16" version="1.1" xmlns="http://www.w3.org/2000/svg" xmlns:xlink="http://www.w3.org/1999/xlink">
    <!-- Generator: Sketch 51.2 (57519) - http://www.bohemiancoding.com/sketch -->
    <title>linkedin-logo</title>
    <desc>Created with Sketch.</desc>
    <defs></defs>
    <g id="Symbols" stroke="none" stroke-width="1" fill="none" fill-rule="evenodd">
        <g id="Header" transform="translate(-1252.000000, -41.000000)" fill="#86939E" fill-rule="nonzero">
            <g id="social" transform="translate(1205.000000, 41.000000)">
                <g id="linkedin-logo" transform="translate(47.000000, 0.000000)">
                    <path d="M8.87007253,7.49504945 L8.87007253,7.16254945 C8.80207253,7.27404945 8.70807253,7.38554945 8.64907253,7.49504945 L8.87007253,7.49504945 Z" id="Shape"></path>
                    <path d="M0,0 L0,16 L16,16 L16,0 L0,0 Z M4.9765978,13.292378 L2.60276044,13.292378 L2.60276044,6.15054066 L4.9765978,6.15054066 L4.9765978,13.292378 Z M3.78967912,5.17577143 L3.7739956,5.17577143 C2.97768791,5.17577143 2.46153846,4.62716484 2.46153846,3.94145055 C2.46153846,3.24068571 2.99277363,2.70762198 3.80522198,2.70762198 C4.61784615,2.70762198 5.11722198,3.24068571 5.13276484,3.94145055 C5.13276484,4.62716484 4.61784615,5.17577143 3.78967912,5.17577143 Z M13.5384615,13.2924132 L11.1639912,13.292378 L11.1639912,9.47147253 C11.1639912,8.51178901 10.8209231,7.8567033 9.96152967,7.8567033 C9.30521319,7.8567033 8.9152,8.29777582 8.74338462,8.72502857 C8.68093187,8.87764396 8.66461538,9.08979341 8.66461538,9.30380659 L8.66461538,13.2924132 L6.28968791,13.2924132 C6.28968791,13.2924132 6.32151209,6.82057143 6.28968791,6.15057582 L8.66461538,6.15057582 L8.66461538,7.16258462 C8.98014945,6.67706374 9.54324396,5.98290989 10.8046066,5.98290989 C12.3672264,5.98290989 13.5384615,7.00339341 13.5384615,9.19690549 L13.5384615,13.2924132 Z" id="Shape"></path>
                </g>
            </g>
        </g>
    </g>
</svg>